<svg xmlns="http://www.w3.org/2000/svg" width="24" height="24" viewBox="0 0 24 24">
    <path fill="#B8B8B8" fill-rule="evenodd" d="M19.898 3.882l.72.72c1.174 1.177 1.174 3.082 0 4.258L9.67 19.807c-.105.106-.236.182-.38.222l-5.197 1.44c-.3.083-.62-.002-.841-.222-.22-.22-.305-.542-.222-.841l1.44-5.197c.04-.144.116-.275.222-.38L15.639 3.882c1.176-1.176 3.083-1.176 4.259 0zM5.756 17.042l-.653 2.355 2.355-.652-1.702-1.703zM15.166 6.8L6.56 15.404l2.535 2.536 8.606-8.606L15.165 6.8zm3.51-1.696l-.104-.093c-.468-.377-1.139-.377-1.607 0l-.104.093-.474.474 2.536 2.536.473-.474c.468-.468.499-1.207.094-1.711l-.093-.105-.72-.72-.105-.093.104.093z"/>
</svg>
