<svg xmlns="http://www.w3.org/2000/svg" width="24" height="24" viewBox="0 0 24 24">
    <path fill="#A2A2A2" d="M4.793 4.793c.39-.39 1.024-.39 1.414 0l2.065 2.064c1.142-.514 2.393-.85 3.713-.85 4.788 0 8.666 4.411 9.752 5.763.31.4.31.953 0 1.33-.564.702-1.88 2.23-3.687 3.535l1.157 1.158c.39.39.39 1.024 0 1.414-.39.39-1.024.39-1.414 0l-1.489-1.487c-1.3.676-2.761 1.143-4.319 1.143-4.787 0-8.666-4.41-9.752-5.763-.31-.399-.31-.953 0-1.33.618-.769 2.14-2.529 4.22-3.902l-1.66-1.66c-.39-.391-.39-1.025 0-1.415zm2.538 7.642c0 2.571 2.083 4.655 4.654 4.655 1.04 0 2-.34 2.774-.917l-1.036-1.035c-.501.323-1.098.511-1.738.511-1.773 0-3.214-1.44-3.214-3.214 0-.64.188-1.236.511-1.737L8.246 9.662c-.575.775-.915 1.734-.915 2.773zm4.654-4.654c-.805 0-1.563.204-2.224.564l1.084 1.085c.354-.135.739-.209 1.14-.209 1.773 0 3.214 1.441 3.214 3.214 0 .402-.074.786-.208 1.14l1.084 1.085c.36-.661.565-1.419.565-2.225 0-2.57-2.084-4.654-4.655-4.654zm-2.03 4.285l-.009.148.852-.001-.7-.7c-.074.172-.123.358-.143.553z"/>
</svg>
