<svg xmlns="http://www.w3.org/2000/svg" width="24" height="24" viewBox="0 0 24 24">
    <path fill="#A2A2A2" d="M11.985 6.008c4.788 0 8.666 4.41 9.752 5.762.31.4.31.953 0 1.33-1.086 1.352-4.964 5.763-9.752 5.763-4.787 0-8.666-4.41-9.752-5.763-.31-.399-.31-.953 0-1.33 1.086-1.352 4.965-5.762 9.752-5.762zm0 1.773c-2.571 0-4.654 2.083-4.654 4.654 0 2.571 2.083 4.655 4.654 4.655 2.571 0 4.655-2.084 4.655-4.655 0-2.57-2.084-4.654-4.655-4.654zm0 1.44c1.773 0 3.214 1.441 3.214 3.214s-1.44 3.214-3.214 3.214c-1.773 0-3.214-1.44-3.214-3.214 0-1.773 1.44-3.214 3.214-3.214zm-.244 1.197c-.975 0-1.773.798-1.795 1.796h1.064c0-.4.332-.732.731-.732z"/>
</svg>
