<svg xmlns="http://www.w3.org/2000/svg" xmlns:xlink="http://www.w3.org/1999/xlink" width="888" height="768" viewBox="0 0 888 768">
    <defs>
        <path id="prefix__a" d="M0.207 0.773L626.023 0.773 626.023 303.73 0.207 303.73z"/>
        <path id="prefix__c" d="M0 0.036L74.839 0.036 74.839 225.467 0 225.467z"/>
    </defs>
    <g fill="none" fill-rule="evenodd">
        <path fill="#F57676" d="M0 0H888V768H0z" opacity=".304"/>
        <g>
            <g transform="translate(80 60) translate(0 .081)">
                <mask id="prefix__b" fill="#fff">
                    <use xlink:href="#prefix__a"/>
                </mask>
                <path fill="#383A48" d="M45.912 303.109c-13.186 1.872-24.813-1.418-34.296-10.913-8.592-8.606-12.354-19.118-11.208-31.3.04-.413.016-.833.02-1.25-.294-4.746.935-9.16 3.178-13.267 6.306-11.546 15.903-18.649 28.891-21.05 3.239-.6 3.335-.657 3.338-3.82.012-10.842-.02-21.684.029-32.525.01-1.89-.507-3.29-1.923-4.647-3.517-3.37-3.413-8.427.018-11.616 3.07-2.855 8.128-2.477 11.219 1.014 1.132 1.279 2.345 1.692 3.956 1.681 5.799-.04 11.598-.004 17.397-.02 3.88-.01 7.12-3.19 7.13-7.04.03-10.168.019-20.337.006-30.507-.003-3.12-.245-3.455-3.364-3.762-3.782-.37-7.512-1.004-11.09-2.248-24.34-8.457-38.504-25.46-42.333-50.928-.66-4.391-.286-8.895-.082-13.345.053-1.163.244-2.363 1.308-3.152 2.103-11.213 6.506-21.393 14.3-29.805 16.164-17.447 36.133-24.065 59.16-18.177 23.424 5.99 38.357 21.554 43.502 45.18 7.355 33.78-14.892 65.522-49.103 71.25-1.407.235-2.847.53-4.252.451-2.57-.145-2.95 1.149-2.482 3.218.755 2.16 1.05 4.373 1.038 6.668-.042 8.231-.036 16.463-.008 24.695.015 4.298 3.235 7.358 7.548 7.512 2.365.085 4.902-.785 7.061.94 18.324.024 36.648.037 54.972.102 1.404.005 1.748-.564 1.64-1.79-.06-.667-.01-1.344-.01-2.016-.018-38.418-.057-76.834-.045-115.25.004-12.354.115-24.706.233-37.058.112-11.795 7.917-19.558 19.689-19.561C273.57.769 375.79.778 478.013.776c1.935 0 3.854.105 5.752.505 4.28-.259 7.35 2.064 9.94 5.003 3.445 3.912 5.203 8.575 5.217 13.839.006 2.184-.023 4.368.014 6.551.045 2.644.272 2.896 2.898 2.912 5.88.038 11.759.012 17.638.013 15.034 0 30.07-.023 45.105.027 2.116.007 3.79-.414 5.404-1.989 3.533-3.449 8.371-3.359 11.445-.086 3.176 3.383 2.819 8.178-.974 11.58-1.137 1.02-1.846 2.052-1.833 3.641.038 4.62.05 9.24-.004 13.859-.022 1.892.698 2.65 2.639 2.789 5.327.38 10.357 2.019 15.275 4.022 1.35.55 2.555 1.28 3.243 2.642 9.546 5.644 17.08 13.192 21.644 23.397 6.35 14.201 6.024 28.419-.289 42.564.14 1.698-.653 3.093-1.482 4.461-6.92 11.429-16.832 19.04-29.582 22.898-7.417 2.245-15 2.853-22.658 1.375-2.165-.418-3.996-.072-6.004.929-13.68 6.818-27.465 13.43-41.27 19.993-5.236 2.488-10.31 5.307-15.622 7.633-1.569.686-1.238 1.416-.33 2.422 5.52 6.103 10.952 12.286 16.422 18.434 7.534 8.47 15.038 16.967 22.598 25.414 8.737 9.76 17.437 19.553 26.122 29.36 2.753 3.108 2.71 4.575-.34 7.39-8.64 7.973-17.551 15.644-26.245 23.555-1.365 1.242-2.81 2.399-4.566 3.079.504 1.086 1.459.455 2.147.457 16.39.047 32.78.09 49.169-.025 2.351-.017 2.593.924 2.46 2.792-.078 1.113-.505 1.479-1.543 1.416-.752-.046-1.511-.006-2.268-.006-73.04 0-146.079-.01-219.118.005-25.634.006-51.267.091-76.901.103-11.934.005-23.867-.086-35.8-.124-4.115-.014-4.115-.002-4.089-4.07l.31-.371c1-.61 2.117-.417 3.192-.42 7.543-.02 15.085-.004 22.628-.012 4.23-.004 5.146-.84 4.877-5.008-.522-8.123-.125-16.25-.246-24.373-.018-1.244-.138-2.54.779-3.595 3.853-.938 5.028-.108 5.037 3.625.018 8.207.008 16.415.002 24.622 0 1.439-.002 2.864 1.108 3.983 1.011.593 2.128.445 3.208.446 21.01.01 42.02.012 63.031.002 3.865 0 3.993-.128 3.995-3.947.007-22.944.01-45.887-.005-68.83-.001-1.645.335-3.531-2.127-3.836-1.673-.598-3.337.047-5.004.044-22.02-.026-44.04-.016-66.06-.018-.926 0-1.849-.03-2.767-.147-1.004.045-2.007.144-3.017.144-36.792-.01-73.584.02-110.377-.022-9.661-.012-17.688-6.415-19.75-15.588-.688-3.052-.783-6.147-.743-9.263.047-3.779.018-7.56.008-11.34-.01-4.044-.096-4.142-4.052-4.144-14.364-.009-28.728-.007-43.093-.001-4.784.002-9.556-.462-14.344-.311-1.362.043-2.682.132-3.919.723-.916.346-1.385 1.193-2.033 1.839-3.55 3.54-8.496 3.584-11.776-.16-1.428-1.63-2.915-2.218-5.007-2.178-5.627.105-11.257.004-16.885.05-3.023.024-6.78 3.729-6.795 6.77-.056 11.342.031 22.683-.065 34.024-.021 2.38 1.337 2.743 3.084 3.051 12.709 2.234 22.272 9.007 28.675 20.157 11.926 20.768 1.532 48.648-21.042 56.627-2.316.818-4.701 1.104-7.142 1.03" mask="url(#prefix__b)"/>
            </g>
            <path fill="#F2F5E5" d="M45.912 303.19c16.96-3.223 29.215-16.335 31.696-32.415 3.395-22.015-12.002-42.075-34.244-44.721-1.785-.212-2.132-.768-2.123-2.418.068-12.102.057-24.204.01-36.305-.006-1.396.22-2.407 1.655-2.95.515-.196 1.111-.655 1.305-1.14 1.07-2.68 3.26-2.557 5.573-2.53 6.219.074 12.438.033 18.656.02 1.033-.003 1.793.095 2.494 1.167 3.295 5.041 9.05 4.907 12.242-.174.169-.267.408-.488.613-.731 4.094-.485 8.203-.12 12.303-.2 1.755-.034 2.377 1.35 2.965 2.679 1.94 4.382 4.05 8.681 6.441 12.834 8.03 13.938 19.065 25.218 31.034 35.8 12.297 10.872 26.95 16.518 42.452 20.538 13.829 3.585 27.91 6.036 41.842 9.162 14.366 3.225 28.56 6.984 41.74 13.844 6.927 3.607 13.037 8.205 18.525 13.76 2.556 2.587 2.845 5.53 2.683 8.791-.077 1.566-1.222 1.096-2.031 1.099-8.991.026-17.982.01-26.971.029-.82.002-1.679-.234-2.463.225l-.081.062c-.057.063-.147.116-.166.188-1.03 3.825-1.03 3.825-5.292 3.825-65.81 0-131.62.002-197.43-.015-1.146 0-2.365.338-3.428-.424M538.17 299.07c7.103-6.41 14.2-12.827 21.308-19.23 3.245-2.925 6.464-5.882 9.79-8.713 1.861-1.583 1.727-2.93.192-4.652-20.689-23.2-41.345-46.428-62.01-69.65-1.564-1.756-3.07-3.57-4.719-5.244-1.22-1.24-1.111-1.772.515-2.552 18.745-9 37.455-18.07 56.164-27.142 1.263-.613 2.716-.942 3.602-2.195.438-.619 1.07-.387 1.614-.26 23.367 5.477 46.598-6.856 56.502-27.305 6.823 11.168 11.015 23.114 10.433 36.384-.378 8.572-3.048 16.584-6.422 24.39-4.46 10.325-10.23 19.998-15.061 30.139-.466.978-.842 2-1.26 3.001-1.4.209-2.163-.8-2.918-1.653-2.672-3.025-5.161-6.195-7.083-9.767-1.778-3.306-1.47-4.422 1.783-6.247 2.702-1.515 5.034-3.362 6.114-6.407.94-2.652.135-5.296-2.012-6.678-1.94-1.246-4.804-.886-6.768.768-2.678 2.255-3.771 5.258-4.23 8.598-.493 3.589-1.38 4.162-5.007 3.788-6.626-.685-12.431-3.444-17.87-7.037-3.85-2.544-7.534-5.346-10.782-8.664-.353-.36-.723-.701-1.123-1.012-.583-.452-1.166-.688-1.775-.046-.632.667-.254 1.244.199 1.77 1.757 2.05 3.81 3.789 5.912 5.464 5.812 4.633 11.931 8.723 19.211 10.743 2.929.813 5.887 1.374 8.943 1.246 1.958-.081 3.36.628 4.185 2.53 2.269 5.23 5.771 9.624 9.556 13.82.69.765 1.744 1.442 1.232 2.772-.989 4.1-3.034 7.798-4.478 11.728-4.559 12.415-7.76 25.123-9.22 38.284-.594 5.34-1.112 10.67-.962 16.043.062 2.258-.826 3.055-3.137 3.044-16.805-.084-33.61-.053-50.417-.059" transform="translate(80 60)"/>
            <g transform="translate(80 60) translate(0 34.26)">
                <mask id="prefix__d" fill="#fff">
                    <use xlink:href="#prefix__c"/>
                </mask>
                <path fill="#F2F5E5" d="M18.106 30.236c-1.204 9.529-1.016 19.012 2.316 28.095 8.919 24.308 26.373 37.947 52.121 40.819 1.851.207 2.31.69 2.296 2.507-.09 11.257-.065 22.516-.023 33.774.006 1.44-.055 2.639-1.66 3.227-.516.187-1.13.649-1.307 1.13-1.022 2.782-3.27 2.501-5.547 2.477-6.132-.063-12.266-.042-18.4-.005-1.317.008-2.236-.115-3.016-1.526-1.485-2.687-4.337-3.693-7.368-3.064-2.519.524-4.742 2.717-5.167 5.27-.498 2.994.346 5.606 3.011 7.178 1.322.78 1.597 1.626 1.593 2.99-.038 12.097-.057 24.196.016 36.293.01 1.683-.39 2.187-2.144 2.395-18.016 2.145-31.41 15.32-34.398 33.671-.604-.824-.393-1.78-.393-2.685C.027 149.954.028 77.127.028 4.3c0-.252-.01-.505.002-.757C.105 1.927.052.063 2.296.036 4.448.01 4.469 1.95 4.493 3.365c.198 11.177 6.314 19.315 13.613 26.87" mask="url(#prefix__d)"/>
            </g>
            <path fill="#F2F5E5" d="M599.772 66.166c-6.473-3.12-13.165-5.483-20.43-5.796-1.23-.053-1.524-.666-1.518-1.777.033-5.884.033-11.769 0-17.653-.007-.976.39-1.48 1.214-1.956 2.766-1.592 3.951-4.066 3.507-7.206-.38-2.68-2.644-4.988-5.215-5.56-3.077-.687-5.716.38-7.654 3.507-.794 1.282-1.764 1.058-2.794 1.06-17.149.013-34.297.01-51.446.01-5.212 0-10.425-.057-15.635.034-1.537.027-2.06-.377-1.979-1.96.132-2.6.04-5.21.035-7.816-.017-10.035-4.562-16.385-14.093-19.69.807-.657 1.768-.43 2.67-.43 43.786-.01 87.57-.01 131.353-.006 1.327 0 2.822-.263 3.493 1.326.643 1.523-.677 2.25-1.474 3.173-6.209 7.2-10.798 15.35-14.175 24.209-4.486 11.77-6.092 24.003-5.86 36.53" transform="translate(80 60)"/>
            <path fill="#383A48" d="M606.385 230.03c-4.756-5.32-9.58-10.597-12.16-17.43-.255-.676-.69-.861-1.353-.825-11.61.639-20.82-4.876-29.491-11.638-2.642-2.061-4.99-4.496-7.561-6.651-1.174-.983-.751-1.637.154-2.318.843-.633 1.288-2.372 2.906-.75 4.823 4.825 10.084 9.116 16.062 12.468 4.664 2.615 9.582 4.403 14.973 4.754 1.942.126 3.009-.144 2.945-2.628-.092-3.542 1.323-6.731 3.88-9.271 2.684-2.666 6.556-3.009 9.13-.908 2.57 2.097 3.032 5.641 1.101 8.893-1.737 2.923-4.346 4.885-7.412 6.185-1.412.598-1.455 1.238-.86 2.471 2.516 5.198 5.955 9.694 10.12 13.66 3.39 4.068 7.422 7.473 11.465 10.843 1.34 1.117 1.148 1.814.152 2.975-.982 1.146-1.661 1.588-2.966.345-3.633-3.458-7.382-6.793-11.085-10.176" transform="translate(80 60)"/>
            <path fill="#F2F5E5" d="M94.87 176.427c-2.015.026-4.152-.377-6.02.16-4.656 1.343-6.458-2.672-9.382-4.559-.29-.187-.316-.918-.316-1.395.013-11.34.048-22.68.08-34.02 2.959 4.511 4.769 9.566 6.68 14.546 2.995 7.804 5.75 15.701 8.59 23.565.195.542.248 1.134.368 1.703" transform="translate(80 60)"/>
            <path fill="#393B49" d="M655.12 32.967c.304 1.613-.29 2.423-2.002 2.169-2.145-.319-3.356.3-2.895 2.75.311 1.653-.44 2.172-2.078 2.113-1.47-.052-2.53-.21-2.22-2.032.396-2.318-.584-3.225-2.86-2.829-1.832.32-1.998-.727-2.017-2.198-.018-1.524.268-2.477 2.044-2.16 2.327.417 3.208-.584 2.832-2.85-.307-1.851.793-2.001 2.245-2.01 1.394-.009 2.362.193 2.057 1.889-.428 2.377.435 3.425 2.917 2.98 1.734-.312 2.268.594 1.978 2.178" transform="translate(80 60)"/>
            <path fill="#F2F5E5" d="M428.203 272.732l-78.748-217.22 206.549 103.013c-.838 1.057-2.031 1.327-3.06 1.826-18.041 8.744-36.094 17.462-54.142 26.19-3.722 1.802-3.86 2.58-1.12 5.662 21.895 24.624 43.788 49.252 65.676 73.88 2.305 2.593 2.301 2.609-.38 4.998-9.41 8.392-18.857 16.741-28.203 25.203-1.384 1.254-1.96 1.024-3.087-.247-22.254-25.093-44.554-50.144-66.852-75.198-2.731-3.07-3.555-2.976-5.695.585-9.645 16.046-19.286 32.094-28.933 48.139-.553.917-1.145 1.812-2.005 3.169" transform="translate(80 60)"/>
            <path fill="#A9C5FB" d="M493.116 122.365c-2.52-1.244-5.066-2.49-7.601-3.754-45.373-22.618-90.755-45.218-136.086-67.92-2.505-1.254-4.897-1.798-7.648-1.796-60.946.046-121.894.016-182.84.101-2.6.003-3.166-.683-3.119-3.175.168-8.403.053-16.812.069-25.218.017-9.499 6.084-15.577 15.646-15.582 44.554-.017 89.109-.007 133.663-.007 57.415 0 114.833-.003 172.249.002 8.085.001 13.727 3.957 15.628 10.88.43 1.566.443 3.158.443 4.75.009 33.122.008 66.244-.004 99.366 0 .721.223 1.497-.4 2.353" transform="translate(80 60)"/>
            <path fill="#F2F5E5" d="M249.56 176.503c-30.256 0-60.514-.02-90.77.043-2.143.005-2.956-.325-2.948-2.779.104-26.81.09-53.622.017-80.433-.005-2.058.444-2.64 2.583-2.64 60.851.065 121.702.065 182.553 0 2.179-.003 2.567.653 2.56 2.673-.068 26.896-.066 53.79 0 80.686.004 1.953-.459 2.502-2.467 2.498-30.508-.068-61.019-.048-91.528-.048" transform="translate(80 60)"/>
            <path fill="#EDBDD2" d="M252.309 299.554c.779-.736 1.752-.454 2.645-.456 8.32-.022 16.638.014 24.957-.044 1.163-.008 2.934.719 3.378-.732.51-1.672.78-3.645-.505-5.3-4.383-5.635-9.751-10.155-15.833-13.83-12.96-7.83-27.287-11.991-41.871-15.43-15.907-3.751-32.068-6.368-47.864-10.608-10.401-2.793-20.58-6.197-29.87-11.83-5.479-3.32-10.363-7.443-15.097-11.682-9.267-8.297-17.763-17.328-24.53-27.854-3.686-5.735-6.897-11.727-9.478-18.032-.816-1.994-1.899-2.845-4.124-2.735-3.434.17-6.885-.001-10.328-.027 3.647-.714 7.331-.288 10.995-.296 17.972-.04 35.944.048 53.915-.017 2.15-.008 2.842.45 2.84 2.743-.004 6.962-.534 13.946.286 20.888 1.125 9.51 9.093 16.536 18.774 16.544 36.701.03 73.403.013 110.103.019 1.09 0 2.18.072 3.269.112.98.749 1.08 1.824 1.082 2.935.032 13.046.038 26.09-.004 39.136-.003 1.018-.084 2.02-.989 2.717-.013 10.39-.084 20.783.006 31.172.018 2.042-.444 2.696-2.593 2.67-9.72-.126-19.443-.06-29.164-.063M529.142 299.522h-3.408c-39.834 0-79.668.001-119.502-.005-1.467 0-3.263.589-3.271-2.013-.003-.762-.958-1.1-1.77-1.118-.822-.018-1.776.323-1.81 1.065-.127 2.658-1.998 2.06-3.531 2.057-1.512-.004-3.242.634-3.498-2.05-.134-1.41-3.055-1.552-3.343-.145-.582 2.847-2.508 2.195-4.275 2.2-1.243.005-2.72.455-2.667-1.764.02-.848-.926-1.354-1.867-1.362-1.045-.01-1.99.493-1.998 1.515-.014 1.792-1.082 1.672-2.272 1.627-.923-.035-1.85-.03-2.773-.002-.828.024-1.417-.035-1.444-1.156-.03-1.274-.875-1.99-2.154-1.974-1.18.013-1.887.717-1.954 1.886-.045.772-.125 1.301-1.094 1.23-1.03-.077-.876-.82-.914-1.464-.027-.418-.009-.84-.009-1.26 0-24.37.035-48.742-.056-73.113-.009-2.344.656-2.883 2.917-2.86 11.344.117 22.69.099 34.035.008 1.812-.014 2.575.549 3.185 2.25 6.456 18 13.008 35.967 19.532 53.943.314.863.479 1.84 1.303 2.385 1.829 1.21 2.752-.027 3.585-1.414 4.323-7.196 8.642-14.396 12.968-21.59 6.357-10.572 12.72-21.142 19.252-31.998l66.833 75.122" transform="translate(80 60)"/>
            <path fill="#7FD5C1" d="M76.982 129.242c-30.81-.108-55.387-24.795-55.277-55.525.109-30.33 25.043-55.111 55.369-55.034 30.588.08 55.277 25.044 55.137 55.751-.138 30.273-24.968 54.912-55.23 54.808" transform="translate(80 60)"/>
            <path fill="#F5DF49" d="M249.626 53.385c30.34 0 60.68.023 91.019-.049 2.232-.005 2.967.468 2.93 2.848-.154 9.326-.117 18.657-.019 27.985.019 1.881-.478 2.408-2.378 2.407-61.016-.049-122.031-.047-183.047-.006-1.75.001-2.28-.471-2.264-2.248.083-9.496.1-18.994-.01-28.49-.022-1.989.521-2.496 2.498-2.491 30.424.063 60.848.044 91.271.044" transform="translate(80 60)"/>
            <path fill="#A9C5FB" d="M621.668 110.643c-.162 25.54-20.703 45.909-46.171 45.786-25.4-.123-45.97-20.895-45.782-46.232.188-25.487 20.977-45.869 46.61-45.698 25.024.166 45.503 21.007 45.343 46.144" transform="translate(80 60)"/>
            <path fill="#F2F5E5" d="M538.542 145.05c-13.177-6.565-26.345-13.145-39.543-19.667-1.196-.59-1.149-1.456-1.146-2.472.012-4.876.005-9.752.005-14.626 0-23.537.03-47.074-.052-70.61-.007-2.115.542-2.616 2.627-2.608 22.108.08 44.215.066 66.323.016 1.589-.003 2.753.245 3.384 1.843.174.44.57.965.984 1.111 2.83.996 2.495 3.297 2.471 5.557-.047 4.874-.058 9.75.014 14.625.02 1.408-.223 2.05-1.849 2.21-23.215 2.303-40.822 17.796-45.282 40.35-3.079 15.568.736 29.638 10.787 41.969.517.635 1.06 1.249 1.59 1.874l-.313.428M358.24 220.956c2.338-.56 3.086.193 3.075 2.731-.103 24.344-.089 48.688-.016 73.032.007 2.113-.366 2.83-2.697 2.819-22.581-.104-45.164-.06-67.744-.07-.831-.001-1.662-.122-2.491-.186-.19-11.009.115-22.02-.169-33.027-.039-1.507 1.021-2.022 1.959-2.661 5.42-3.691 11.015-7.113 16.54-10.645 15.295-9.78 30.6-19.548 45.885-29.346 1.79-1.147 3.608-2.115 5.659-2.647" transform="translate(80 60)"/>
            <path fill="#F5DF49" d="M4.451 264.671c.011-19.094 15.515-34.644 34.58-34.679 19.083-.036 34.71 15.504 34.724 34.53.014 19.295-15.443 34.92-34.581 34.955-19.163.035-34.735-15.573-34.723-34.806" transform="translate(80 60)"/>
            <path fill="#A9C5FB" d="M348.402 65.309c2.212 6.06 4.39 12.001 6.548 17.95 10.952 30.196 21.9 60.393 32.85 90.59.96 2.647.96 2.653-1.89 2.653-11.848.003-23.695-.07-35.54.063-2.316.025-2.727-.69-2.722-2.826.073-27.392.034-54.783.058-82.175.006-8.147.113-16.293.194-24.44.006-.538-.226-1.152.502-1.815" transform="translate(80 60)"/>
            <path fill="#DF719D" d="M358.24 220.956c-8.24 5.33-16.463 10.685-24.723 15.982-14.415 9.244-28.836 18.477-43.302 27.639-1.424.9-1.831 1.897-1.825 3.475.04 10.411-.002 20.824-.02 31.233-.615-.83-.296-1.78-.299-2.664-.027-10.016-.017-20.033-.017-30.253-1.542.501-2.912.651-3.993-.593l-.09-44.788c1.675-.04 3.351-.112 5.027-.112 22.076-.007 44.152-.007 66.227-.002 1.005 0 2.01.054 3.016.083" transform="translate(80 60)"/>
            <path fill="#393B48" d="M138.7 266.71c.393 1.67-.444 2.229-2.04 1.98-2.213-.343-3.325.396-2.88 2.796.313 1.688-.495 2.088-2.091 2.09-1.597 0-2.402-.397-2.088-2.087.442-2.383-.645-3.17-2.865-2.793-1.912.325-2.11-.699-2.152-2.303-.042-1.706.552-2.335 2.146-2.037 2.585.482 3.263-.765 2.866-3.047-.307-1.768.757-1.834 2.084-1.825 1.304.01 2.442.025 2.098 1.808-.504 2.618.645 3.497 3.117 3.055 2.006-.359 1.946.946 1.806 2.363" transform="translate(80 60)"/>
            <path fill="#F0F3E3" d="M597.234 206.275c-.337-3.135.517-5.585 2.489-7.6.913-.931 2.115-1.552 3.357-.572 1.247.985.892 2.244.2 3.388-1.347 2.228-3.373 3.63-6.046 4.784" transform="translate(80 60)"/>
            <path fill="#F2F5E5" d="M391.782 31.888c.043.82-.385 1.128-.767 1.44-3.24 2.643-6.555 5.2-9.705 7.945-1.454 1.267-2.024.287-2.731-.65-.64-.848-1.452-1.608-.061-2.674 3.184-2.44 6.242-5.045 9.386-7.538.524-.417 1.007-1.46 1.848-.797.832.656 1.441 1.595 2.03 2.274M335.168 29.976c-.43 1.139-1.597 1.346-2.51 1.872-1.002.58-1.356-.281-1.717-.892-2.128-3.602-4.193-7.24-6.343-10.829-.668-1.114-.222-1.697.724-2.166.91-.45 1.952-1.604 2.813-.196 2.357 3.852 4.57 7.795 6.836 11.703.082.143.122.31.197.508" transform="translate(80 60)"/>
            <path fill="#F1F5E5" d="M357.649 30.783c-2.12.082-2.757-.809-2.181-3.1.791-3.146 1.237-6.386 1.694-9.604.252-1.773 1.128-1.845 2.612-1.57 1.455.272 2.002.69 1.656 2.304-.736 3.422-1.201 6.901-1.87 10.34-.167.862-.149 2.234-1.911 1.63" transform="translate(80 60)"/>
            <path fill="#383A48" d="M249.466 147.444H188.18c-4.323 0-4.481-.165-4.482-4.59 0-8.91-.007-17.821.003-26.733.005-3.078.567-3.633 3.698-3.633 41.53-.006 83.06-.006 124.588-.001 3.155 0 3.72.546 3.724 3.61.012 9.249.012 18.496.001 27.742-.004 3.147-.464 3.6-3.702 3.601-20.847.008-41.697.004-62.545.004" transform="translate(80 60)"/>
            <path fill="#393B49" d="M459.622 273.37c-.52-2.194.943-2.163 2.346-1.975 2.084.279 2.943-.49 2.595-2.595-.268-1.626.222-2.367 2.11-2.377 1.971-.01 2.306.895 2.053 2.439-.364 2.22.692 2.83 2.673 2.515 1.672-.267 2.357.282 2.331 2.14-.025 1.753-.519 2.51-2.274 2.206-2.231-.385-3.103.528-2.723 2.74.284 1.647-.443 2.134-2.08 2.129-1.61-.004-2.382-.432-2.094-2.108.37-2.158-.398-3.166-2.682-2.762-1.877.331-2.702-.429-2.255-2.352" transform="translate(80 60)"/>
            <path fill="#41404F" d="M380.075 243.713c1.205.114 2.089.738 2.173 1.978.091 1.376-.776 2.258-2.11 2.276-1.218.017-2.053-.829-2.082-2.065-.03-1.243.779-1.955 2.019-2.19" transform="translate(80 60)"/>
            <path fill="#3E3E4C" d="M392.745 277.306c-.15 1.256-.703 2.107-2.022 2.128-1.41.021-2.216-.798-2.179-2.148.035-1.22.832-1.97 2.117-1.965 1.314.005 1.888.833 2.084 1.985" transform="translate(80 60)"/>
            <path fill="#3E3E4D" d="M382.31 277.24c-.164 1.254-.699 2.103-2.009 2.19-1.305.088-2.112-.638-2.21-1.85-.11-1.336.612-2.223 2.047-2.26 1.318-.035 1.895.811 2.171 1.92" transform="translate(80 60)"/>
            <path fill="#42414F" d="M403.204 246.057c-.116 1.18-.869 1.932-2.1 1.9-1.212-.033-2.045-.792-2.048-2.074-.002-1.42.925-2.193 2.242-2.122 1.202.064 1.93.888 1.906 2.296" transform="translate(80 60)"/>
            <path fill="#3E3E4C" d="M392.729 224.904c-.193 1.273-.837 2.068-2.13 2.024-1.406-.048-2.161-.94-2.047-2.275.105-1.212.946-1.907 2.233-1.837 1.327.073 1.84.926 1.944 2.088" transform="translate(80 60)"/>
            <path fill="#3D3E4C" d="M392.727 287.952c-.18 1.24-.82 2.045-2.106 2.021-1.402-.026-2.173-.914-2.071-2.249.092-1.205.909-1.927 2.204-1.864 1.321.064 1.86.894 1.973 2.092" transform="translate(80 60)"/>
            <path fill="#3E3E4D" d="M382.328 287.827c-.262 1.288-.837 2.156-2.14 2.154-1.425-.003-2.186-.905-2.114-2.226.066-1.202.866-1.947 2.177-1.9 1.334.047 1.824.934 2.077 1.972" transform="translate(80 60)"/>
            <path fill="#41414F" d="M382.312 224.906c-.262 1.225-.878 2.065-2.177 2.033-1.426-.035-2.163-.95-2.058-2.28.097-1.211.913-1.94 2.223-1.849 1.309.092 1.853.935 2.012 2.096" transform="translate(80 60)"/>
            <path fill="#3F3F4D" d="M390.544 248.009c-1.195-.257-2.063-.929-2.015-2.175.051-1.344.938-2.176 2.304-2.056 1.227.108 1.954.967 1.864 2.227-.09 1.26-.938 1.87-2.153 2.004" transform="translate(80 60)"/>
            <path fill="#41404F" d="M369.664 243.71c1.19.215 2.07.826 2.072 2.1.003 1.386-.9 2.212-2.224 2.154-1.204-.054-1.967-.903-1.927-2.18.042-1.286.864-1.898 2.079-2.075" transform="translate(80 60)"/>
            <path fill="#3D3D4C" d="M403.215 277.222c-.107 1.442-.746 2.223-2.073 2.203-1.293-.018-2.066-.77-2.066-2.049 0-1.278.766-2.021 2.065-2.046 1.353-.026 1.922.81 2.074 1.892" transform="translate(80 60)"/>
            <path fill="#3D3E4C" d="M371.775 277.475c-.254 1.191-.872 1.998-2.168 1.955-1.43-.048-2.102-.927-1.99-2.281.104-1.262.923-1.913 2.2-1.815 1.289.098 1.832.945 1.958 2.141" transform="translate(80 60)"/>
            <path fill="#40404E" d="M380.283 268.965c-1.414-.035-2.172-.79-2.213-2-.04-1.206.674-2.085 1.95-2.153 1.407-.073 2.218.797 2.23 2.123.012 1.239-.827 1.922-1.967 2.03M399.029 256.29c.161-1.213.873-2.02 2.103-2.004 1.357.018 2.133.866 2.05 2.271-.078 1.304-.924 1.976-2.152 1.898-1.217-.079-1.927-.861-2.001-2.165" transform="translate(80 60)"/>
            <path fill="#3E3E4C" d="M392.734 266.962c-.159 1.245-.833 1.998-2.113 1.981-1.262-.017-2.076-.769-2.078-2.003-.004-1.339.82-2.19 2.211-2.123 1.267.061 1.86.93 1.98 2.145M390.515 233.329c1.376.02 2.145.732 2.188 1.964.041 1.214-.654 2.096-1.922 2.17-1.39.083-2.222-.768-2.242-2.1-.017-1.236.797-1.934 1.976-2.034" transform="translate(80 60)"/>
            <path fill="#40404E" d="M371.772 256.435c-.178 1.267-.92 2.027-2.143 2.026-1.237 0-2.045-.77-2.04-2.04.007-1.373.825-2.219 2.202-2.133 1.218.077 1.885.92 1.981 2.147" transform="translate(80 60)"/>
            <path fill="#403F4E" d="M382.303 235.313c-.143 1.198-.735 2.076-1.995 2.15-1.4.085-2.221-.781-2.235-2.112-.014-1.23.785-2.017 2.058-2.03 1.27-.012 1.938.776 2.172 1.992" transform="translate(80 60)"/>
            <path fill="#3C3D4B" d="M369.568 290.004c-1.234-.147-1.967-.842-1.965-2.099.002-1.253.686-2.033 1.985-2.037 1.396-.002 2.195.805 2.128 2.166-.061 1.222-.872 1.9-2.148 1.97M371.774 224.88c-.193 1.196-.797 2.028-2.075 2.042-1.415.017-2.145-.842-2.092-2.197.048-1.253.82-1.956 2.114-1.904 1.287.05 1.884.846 2.053 2.059" transform="translate(80 60)"/>
            <path fill="#40404E" d="M390.646 254.23c1.255.174 2.033.888 2.062 2.122.029 1.26-.762 2.085-1.997 2.11-1.35.025-2.221-.81-2.178-2.186.04-1.246.91-1.885 2.113-2.045" transform="translate(80 60)"/>
            <path fill="#3C3D4B" d="M401.257 226.983c-1.431-.192-2.211-.89-2.18-2.17.032-1.282.83-2.005 2.12-1.99 1.323.016 2 .8 1.986 2.094-.016 1.331-.879 1.883-1.926 2.066" transform="translate(80 60)"/>
            <path fill="#434250" d="M382.308 256.404c-.198 1.254-.908 2.058-2.144 2.066-1.243.01-2.088-.791-2.098-2.028-.01-1.344.83-2.222 2.212-2.164 1.252.052 1.872.937 2.03 2.126" transform="translate(80 60)"/>
            <path fill="#3C3D4B" d="M371.774 266.882c-.171 1.263-.838 2.04-2.133 2.05-1.314.011-2.051-.744-2.035-2.044.016-1.28.764-2.077 2.05-2.07 1.279.005 1.94.832 2.118 2.064M401.135 264.772c1.245.164 2.032.804 2.045 2.111.012 1.317-.73 2.056-2.027 2.048-1.28-.008-2.073-.754-2.078-2.039-.005-1.281.808-1.949 2.06-2.12M401.18 237.511c-1.231-.152-2.071-.782-2.107-2.068-.037-1.296.738-2.044 2.018-2.087 1.3-.046 2.066.666 2.09 1.981.02 1.3-.75 1.972-2 2.174M369.774 233.328c1.234.168 2.012.882 1.948 2.16-.063 1.261-.894 2.032-2.16 1.977-1.27-.055-1.999-.89-1.96-2.168.042-1.306.839-1.945 2.172-1.969" transform="translate(80 60)"/>
            <path fill="#3B3C4A" d="M403.209 287.903c-.105 1.24-.73 2.059-2.043 2.064-1.284.004-2.068-.756-2.087-2.03-.02-1.28.736-2.033 2.038-2.064 1.323-.031 1.987.714 2.092 2.03" transform="translate(80 60)"/>
            <path fill="#383A48" d="M86.366 72.756c8.426 3.813 13.808 9.948 15.738 18.892.75 3.479.486 7.025.456 10.547-.018 2.14-1.555 2.25-3.182 2.247-10.33-.014-20.66-.006-30.99-.006-4.618 0-9.24-.079-13.856.03-2.431.058-3.16-.963-3.24-3.303-.249-7.405.721-14.396 5.59-20.394 2.863-3.526 6.41-6.095 10.833-8.07-5.542-4.208-8.373-9.52-7.714-16.388.42-4.383 2.354-8.01 5.614-10.923 6.928-6.19 17.56-5.71 23.831 1.046 7.01 7.55 5.93 17.415-3.08 26.322M584.273 109.22c10.165 5 13.923 13.33 13.413 24.05-.1 2.095-.915 3.011-3.069 3.003-12.607-.046-25.216-.025-37.824-.018-1.474 0-2.763-.287-2.897-2.058-.688-9.079 1.417-17.042 9.247-22.635 1.223-.874 2.566-1.579 3.857-2.365-7.401-8.085-7.896-16.385-1.364-22.636 5.798-5.55 15.021-5.306 20.648.461 4.647 4.766 6.818 14.607-2.01 22.197M31.337 263.492c-2.96-3.12-4.651-6.708-3.728-11.163 1.011-4.877 4.694-8.524 9.42-9.309 4.916-.816 9.593 1.286 12.097 5.435 2.61 4.323 2.371 9.504-.922 13.394-1.286 1.519-1.298 2.054.441 3.211 6.345 4.224 8.171 10.553 7.656 17.796-.095 1.344-.863 2.142-2.309 2.142-9.919-.004-19.838-.001-29.757-.001-1.88 0-2.386-1.167-2.47-2.799-.384-7.641 2.071-13.86 8.873-17.942.21-.126.386-.31.565-.48.056-.053.073-.15.134-.284" transform="translate(80 60)"/>
            <path fill="#F2F5E5" d="M249.705 143.193c-19.748 0-39.499-.032-59.247.047-2.001.008-2.505-.541-2.471-2.495.116-7.057.135-14.12-.008-21.176-.044-2.173.454-2.796 2.73-2.79 29.247.088 58.492.058 87.739.058 10.168 0 20.337.06 30.505-.05 2.04-.023 2.493.6 2.463 2.529-.11 7.141-.114 14.286.003 21.428.031 1.947-.458 2.505-2.465 2.497-19.749-.08-39.5-.048-59.249-.048M76.992 100.252c-6.547 0-13.095-.013-19.642.013-1.11.004-1.795-.024-1.888-1.529-.679-11.005 6.458-20.704 17.04-22.985 10.376-2.237 20.866 3.64 24.552 13.735 1.053 2.883 1.266 5.864 1.367 8.9.055 1.674-.596 1.91-2.04 1.895-6.462-.066-12.926-.03-19.39-.03M77.11 45.33c7.05.061 12.736 5.849 12.703 12.928-.035 7.052-5.808 12.787-12.864 12.778-7.122-.008-12.959-5.95-12.845-13.076.112-7.052 5.92-12.693 13.005-12.63M575.654 132.057c-5.2 0-10.402-.026-15.603.019-1.26.011-1.947-.117-1.999-1.71-.317-9.947 7.474-18.353 17.27-18.503 10.262-.157 18.162 7.83 18.056 18.132-.016 1.642-.47 2.133-2.121 2.1-5.199-.103-10.402-.038-15.603-.038M575.77 107.398c-5.86.012-10.398-4.495-10.383-10.316.014-5.773 4.674-10.407 10.425-10.368 5.592.037 10.26 4.685 10.322 10.278.064 5.713-4.599 10.394-10.365 10.406M38.952 280.842c-3.698 0-7.395-.047-11.09.025-1.313.027-1.709-.383-1.725-1.71-.085-6.838 5.844-12.81 12.874-12.858 7.039-.05 12.979 5.78 13.068 12.664.022 1.651-.58 1.943-2.037 1.908-3.695-.086-7.394-.029-11.09-.029M46.538 254.53c.032 4.17-3.085 7.337-7.266 7.383-4.397.048-7.59-3.016-7.603-7.3-.014-4.09 3.206-7.413 7.265-7.501 4.158-.09 7.573 3.24 7.604 7.417" transform="translate(80 60)"/>
            <path fill="#383A48" d="M390.146 344.137c.057-1.024.163-2.049.164-3.073.01-16.832.002-33.664.01-50.496.003-4.158.022-4.165 4.04-4.165h328.994c4.05 0 4.072.006 4.076 4.137.021 20.267.191 40.535.01 60.8-.453 50.663-.104 101.326-.193 151.988-.074 41.985-.017 69.605-.021 111.591 0 11.177-3.04 18.282-17.887 18.282-22.414.003-30.91-.002-53.325.012-1.208 0-2.39-.073-3.542-.445-7.284.524-13.538-2.331-19.591-5.909-3.879-2.291-7.17-5.338-10.356-8.419-6.41-6.2-13.04-12.162-19.524-18.282-7.664-7.234-15.385-14.412-23.1-21.595-7.524-7.007-15.102-13.956-22.568-21.029-5.783-5.479-11.953-10.551-17.27-16.517-.857-.96-1.932-1-3.051-1.034-7.625-.237-14.778 1.713-21.644 4.822-6.787 3.071-12.566 7.613-18.177 12.453-9.003 7.769-16.308 17.105-24.293 25.814-5.219 5.691-10.546 11.275-16.072 16.674-3.255 3.18-7.195 2.646-11.13 2.475-40.962.396-81.917.095-122.872.157-8.325.013-16.654.288-24.977-.199-.432-.026-.844.132-1.254.26-6.296-.096-6.295-.096-6.3 6.347-.006 6.861.029 13.722-.023 20.583-.01 1.355.135 2.791-1.163 3.763-15.098.017-30.196.045-45.295.048-29.682.009-59.365-.022-89.048.053-2.222.006-2.889-.494-2.878-2.812.097-20.16.058-40.32.051-60.48 0-1.027-.076-2.053-.117-3.08.469-1.197 1.538-1.23 2.569-1.302 1.455-.104 2.914-.07 4.372-.07 25.386-.003 50.773.004 76.159-.013 1.525-.001 3.103.252 4.524-.564 1.374-1.53 1.468-3.43 1.473-5.318.023-8.842.186-17.687-.022-26.524-.81-34.41-.124-68.826-.37-103.237-.007-.93.138-1.872-.184-3.07-11.71 21.773-22.96 43.539-34.661 65.059-6.042 11.54-12.198 23.024-18.273 34.55-3.2 6.068-6.481 12.092-9.628 18.189-.824 1.595-1.906 2.92-3.902 2.887-2.036-.033-2.962-1.472-3.68-3.119-4.175-9.588-8.149-19.263-12.314-28.856-1.093-2.513-1.472-2.548-3.596-.698-10.85 9.452-21.753 18.843-32.712 28.17-2.48 2.109-4.83 4.372-7.447 6.313-2.319 1.718-3.997 1.597-6.108-.587-2.322-2.402-4.352-5.07-6.504-7.623-3.477-4.126-7.011-8.203-10.47-12.346-2.409-2.887-2.236-5.117.608-7.494 8.48-7.085 16.759-14.406 25.157-21.586 4.688-4.007 9.318-8.082 14.019-12.075 2.47-2.098 2.384-2.218-.256-4.006-8.872-6.01-17.717-12.061-26.656-17.973-1.766-1.168-3.932-2.229-3.615-4.847.316-2.61 2.62-3.158 4.65-3.842 9.182-3.095 18.385-6.128 27.57-9.212 1.4-.47 2.792-.903 4.222-.118 33.811-11.307 67.614-22.64 101.451-33.867 2.411-.8 3.292-1.81 3.273-4.45-.135-18.192-.074-36.385-.065-54.577 0-1.621-.146-3.275.724-4.768.306-1.34 1.304-1.683 2.505-1.766 1.628-.111 3.26-.09 4.889-.09 44.103-.002 88.206 0 132.31 0 1.03 0 2.06-.036 3.088-.002 2.07.067 3.772-.348 4.228-2.764.096-.513.538-.862.998-1.128" transform="translate(80 60)"/>
            <path fill="#F2F5E5" d="M241.367 566.414c-1.02.065-2.042.184-3.063.185-27.81.01-55.621.005-83.432.019-1.016 0-2.061-.215-3.05.24-.557.966-.29 2.02-.291 3.028-.017 20.096-.047 40.193.034 60.29.01 2.31-.568 3.068-2.987 3.06-24.22-.087-40.427-.05-64.645-.056-69.88 0-71.685-2.413-71.685-11.588-.003-94.297-.003-180.807-.003-275.105 0-.343.012-.686.006-1.03-.025-1.459.449-2.67 2.086-2.67 1.606-.003 2.107 1.155 2.154 2.633.137 4.203.216 8.41.512 12.603 1.02 14.505 24.392 44.681 70.3 41.667 16.723-1.098 18.904 26.42 32.3 36.105 4.806 3.473 9.78 6.688 14.819 9.808.857.53 1.881.902 2.321 1.947-10.884 3.632-21.771 7.26-32.653 10.903-1.267.423-2.811.575-3.074 2.304-.267 1.76 1.198 2.302 2.31 3.047 9.976 6.686 19.94 13.395 29.962 20.012 1.609 1.063 1.95 1.566.256 3.009-13.851 11.808-27.616 23.719-41.408 35.598-2.494 2.147-2.551 2.737-.43 5.242 5.548 6.552 11.102 13.1 16.653 19.649 2.494 2.942 2.903 2.998 5.762.54 13.672-11.753 27.36-23.491 40.97-35.316 1.66-1.443 2.253-1.596 3.179.656 4.201 10.221 8.57 20.374 12.912 30.538.549 1.283.798 2.967 2.729 2.995 1.762.025 2.15-1.5 2.772-2.67 8.648-16.274 17.274-32.56 25.917-48.839.597-1.125 1.286-2.203 1.932-3.302 1.166-.536 1.952.151 2.738.847 8.163 7.227 15.83 14.936 22.9 23.245 2.997 3.524 5.94 7.095 8.926 10.63 1.305 1.544 2.343 3.199 2.337 5.284-.03 11.497.108 22.995-.066 34.492M446.675 601.347c5.575.897 9.234-2.077 12.894-5.792 10.372-10.533 19.704-22.012 30.003-32.601 8.74-8.985 18.203-16.982 30.277-21.235 5.968-2.103 12.111-3.125 18.437-3.061.77.008 1.523-.071 2.074.694 3.852 5.354 9.102 9.325 13.85 13.773 23.819 22.307 47.74 44.503 71.6 66.765 7.568 7.06 16.399 11.432 26.66 12.878-.862.516-1.822.413-2.76.413-119.687.002-239.373 0-359.06-.002-.513 0-1.028-.03-1.542-.047.005-9.865.05-19.731-.023-29.595-.012-1.718.317-2.522 2.218-2.324 1.698.177 3.425.08 5.14.103 4.297 1.544 6.96 5.228 10.297 7.997 10.57 8.77 22.65 14.124 36.102 16.485 8.546 1.5 17.199 2.238 25.85 2.026 19.403-.476 38.203-3.868 55.657-12.877 6.114-3.156 11.908-6.835 17.3-11.115 1.517-1.204 3.165-2.032 5.026-2.485M390.146 344.137c.59 5.096.59 5.096-4.314 5.096-46.668 0-93.335-.002-140.002.01-1.259 0-2.595-.307-3.7.642-.799-.865-.552-1.944-.553-2.948-.014-18.803-.01-37.607-.01-56.411 0-.257-.001-.515.003-.773.02-1.216-.028-2.477 1.423-2.998 1.443-.518 2.22.411 2.985 1.397 4.062 5.235 8.545 10.096 13.418 14.574 9.767 8.972 20.342 16.613 33.521 19.86 6.819 1.682 13.626.957 20.458.127 10.898-1.324 21.774-2.843 32.813-2.432 15.822.588 28.756 7.12 39.325 18.69 1.56 1.708 3.09 3.444 4.633 5.166M144.389 384.207c-19.955-5.137-34.477-23.75-34.664-44.434-.22-24.235 16.403-43.867 40.311-47.609 24.398-3.818 48.657 13.536 52.942 37.87 4.322 24.55-10.149 47.65-33.95 54.2-.736-.514-.875-1.263-.704-2.057 1.092-5.1.516-10.266.562-15.4.023-2.54.775-4.317 2.927-5.834 7.06-4.98 10.945-11.805 11.659-20.509 1.09-13.257-9.038-25.886-22.251-28.245-13.363-2.385-28.75 6.897-30.93 22.017-1.565 10.848 1.94 19.82 10.865 26.353 2.237 1.64 3.354 3.375 3.303 6.169-.091 5.053-.273 10.124.57 15.149.145.87.185 1.721-.64 2.33" transform="translate(80 60)"/>
            <path fill="#383A48" d="M144.389 384.207c-1.58-5.914-.705-11.952-.821-17.933-.037-1.925-.556-3.022-2.243-4.099-10.977-7.01-15.494-20.973-10.922-33.237 4.461-11.965 17.101-19.789 29.263-18.113 13.797 1.9 23.894 12.065 24.936 25.387.872 11.14-3.528 19.89-12.758 26.113-1.512 1.02-2.005 2.03-1.948 3.728.107 3.172-.021 6.352.046 9.527.061 2.93-.136 5.819-.915 8.653-3.238 5.78-7.922 8.884-14.753 7.771-4.693-.764-7.695-3.796-9.885-7.797" transform="translate(80 60)"/>
            <path fill="#383B48" d="M341.589 281.626c1.594-.282 2.54.227 2.263 2.017-.342 2.23.492 3.237 2.804 2.855 1.831-.304 2.3.558 2.304 2.313.006 1.718-.566 2.402-2.214 2.121-2.462-.42-3.23.728-2.89 2.993.285 1.889-.86 1.998-2.33 2.051-1.67.06-2.188-.665-1.936-2.146.412-2.42-.655-3.255-2.952-2.893-1.724.272-2.192-.538-2.172-2.19.02-1.58.345-2.51 2.126-2.253 2.228.323 3.434-.37 3.002-2.87-.263-1.518.348-2.315 1.995-1.998" transform="translate(80 60)"/>
            <path fill="#383B49" d="M118.592 298.36c.004 1.048-.404 1.648-1.13 2.064-.862.495-1.702.38-2.368-.27-2.57-2.512-5.13-5.035-7.617-7.628-.794-.828-.762-1.907.035-2.798.694-.775 1.692-1.163 2.523-.469 3.02 2.52 5.771 5.33 8.338 8.312.198.23.182.644.219.788M197.02 300.711c-1.762-.03-2.909-2.07-1.761-3.343 2.519-2.793 5.251-5.395 7.972-7.996.78-.746 1.79-.523 2.56.204.657.622 1.158 1.528.545 2.296-2.562 3.213-5.472 6.1-8.684 8.673-.18.144-.484.13-.631.166" transform="translate(80 60)"/>
            <path fill="#383A48" d="M219.037 336.715c1.63 0 3.26-.023 4.889.008 1.29.024 2.195.683 2.235 1.992.043 1.428-.86 2.219-2.27 2.237-3.344.04-6.689.026-10.034.013-1.423-.006-2.347-.758-2.356-2.166-.011-1.457.996-2.085 2.392-2.093 1.714-.011 3.43-.003 5.144-.003v.012zM158.821 276.682l-.001 4.88c-.001 1.404-.63 2.368-2.083 2.407-1.457.037-2.156-.873-2.159-2.3-.008-3.34-.019-6.679.01-10.018.011-1.404.715-2.323 2.186-2.28 1.495.042 2.038 1.058 2.046 2.43.009 1.627.002 3.254.001 4.881M94.466 340.974c-1.545 0-3.088-.009-4.633.002-1.508.012-2.585-.627-2.584-2.2 0-1.452 1.039-2.068 2.426-2.072 3.259-.008 6.518-.006 9.779 0 1.38.001 2.441.59 2.46 2.04.017 1.565-1.043 2.238-2.558 2.232-1.63-.007-3.26-.002-4.89-.002" transform="translate(80 60)"/>
            <path fill="#F2F5E5" d="M582.45 443.995c2.106.273 4.936-.716 6.14.756 1.027 1.258.367 3.934.368 5.983.012 25.589.008 51.177.008 76.766v2.842c-1.169.197-1.533-.763-2.077-1.297-4.662-4.566-9.455-9.015-13.876-13.806-7.868-8.526-17.765-8.687-24.753-5.03-8.41 4.403-12.32 13.285-10.445 23.674-.823.568-1.774.278-2.656.278-45.853.017-91.706.001-137.558.062-2.147.002-2.885-.347-2.881-2.747.081-58.39.072-116.779.026-175.168-.002-1.906.317-2.633 2.471-2.63 45.424.07 90.848.052 136.27.065.65 0 1.356-.228 1.956.233-.026.175.008.385-.08.473-12.208 12.194-24.424 24.38-36.64 36.565-1.426.93-3.016 1.127-4.679 1.126-5.664-.009-11.33-.1-16.992.024-6.792.15-12.992 2.002-18.218 6.616-11.944 10.545-11.287 29.319 1.532 39.061 4.618 3.509 9.84 5.04 15.615 5.036 30.808-.025 61.617.018 92.426-.046 4.732-.01 9.396.367 14.043 1.164" transform="translate(80 60)"/>
            <path fill="#F2F5E5" d="M474.651 572.877c-1.673 1.842-3.346 3.683-5.016 5.525-.988 1.09-1.685 2.351-3.697 1.959-1.246-.243-2.274 1.11-1.803 2.466.455 1.305-.19 1.897-.903 2.632-1.435 1.479-2.86 2.968-4.295 4.447-.868.895-1.508 1.808-3.203 1.2-1.38-.495-2.38.64-2.351 2.242.048 2.736-.645 3.467-3.437 3.508-3.69.055-7.382.126-11.073.127-48.954.008-97.906-.013-146.86.063-2.4.003-2.97-.656-2.93-2.975.14-8.329-.018-16.662.106-24.99.03-2.05-.618-2.594-2.56-2.585-12.624.061-25.25-.035-37.873.087-2.377.023-2.95-.628-2.947-2.971.07-48.094.072-96.19-.004-144.283-.003-2.391.651-2.948 2.974-2.945 41.825.07 83.65.075 125.475-.01 2.49-.004 2.899.812 2.896 3.05-.061 43.113-.045 86.225-.044 129.339 0 4.373.108 4.48 4.493 4.48H492.779c.09.197.178.395.267.593-6.962 4.632-10.864 12.404-17.944 16.916-.491.635.153 1.513-.45 2.125M593.29 476.739c0-19.152-.018-38.303.01-57.454.01-6.814 3.728-11.653 9.827-12.983 7.386-1.61 14.608 3.92 14.74 11.511.147 8.5.05 17.003.051 25.505.004 14.428.001 28.856.002 43.284 0 .601-.01 1.202.008 1.803.035 1.368.617 2.395 2.067 2.472 1.637.087 2.282-1.039 2.31-2.485.066-3.262-.043-6.53.085-9.788.24-6.105 4.045-11.1 9.695-12.927 9.296-3.005 18.35 3.656 18.6 13.769.116 4.634.027 9.274.022 13.911-.001 1.666-.13 3.605 2.214 3.556 2.109-.044 2.102-1.827 2.086-3.447-.032-3.006-.062-6.013.008-9.018.164-6.875 5.512-12.247 12.286-12.409 6.467-.156 12.104 4.8 12.546 11.507.343 5.217.13 10.47.162 15.708.006.945.004 1.89.007 2.834.005 1.462.544 2.642 2.148 2.638 1.567-.005 2.192-1.1 2.182-2.608-.017-2.405-.009-4.81-.001-7.214.022-6.979 4.46-11.778 10.857-11.75 6.264.028 10.737 4.83 10.74 11.64.012 29.542.278 59.088-.107 88.626-.236 18.158-8.846 32.044-25.006 40.276-15.87 8.084-31.814 7.241-46.858-2.788-4.805-3.203-8.692-7.523-12.899-11.44-24.644-22.93-49.257-45.895-73.893-68.834-4.816-4.485-6.72-9.887-5.035-16.298 3.113-11.855 17.278-16.01 26.165-7.589 6.854 6.496 13.439 13.277 20.153 19.922.956.947 1.824 2.248 3.47 1.592 1.67-.667 1.349-2.217 1.35-3.554.012-19.323.008-38.646.008-57.968" transform="translate(80 60)"/>
            <path fill="#EF7B97" d="M547.115 348.526c1.82-1.685 3.697-3.314 5.453-5.065 11.675-11.639 23.324-23.305 34.98-34.964.485-.485.991-.955 1.433-1.478.89-1.057 1.057-2.213-.01-3.205-.959-.893-2.052-.734-3.008.117-.64.57-1.233 1.194-1.84 1.8-13.9 13.907-27.815 27.8-41.678 41.746-1.233 1.24-2.437 1.849-4.239 1.847-46.881-.048-93.763-.055-140.645.014-2.257.004-2.848-.54-2.835-2.824.103-17.686.092-35.375.01-53.062-.01-2.028.532-2.567 2.56-2.566 107.674.05 215.348.05 323.021-.003 2.14-.002 2.701.559 2.692 2.696-.088 17.774-.081 35.547-.005 53.322.005 1.935-.514 2.428-2.435 2.426-57.1-.051-114.2-.04-171.3-.044-.577 0-1.154-.048-1.732-.074l-.422-.683" transform="translate(80 60)"/>
            <path fill="#F2F5E5" d="M622.504 391.052h-37.093c-6.467.542-12.91 1.21-19.433 1.156-18.668-.157-37.339-.023-56.007-.098-1.577-.007-3.544.66-4.52-1.449 11.89-11.91 23.8-23.804 35.646-35.76 1.136-1.145 2.354-1.177 3.737-1.177 27.48.01 54.96.007 82.44.007 30.915 0 61.83.022 92.746-.046 2.248-.005 3.002.43 2.999 2.891-.08 58.224-.074 116.448-.014 174.671.003 2.268-.44 3.216-2.9 2.98-2.468-.234-4.99-.211-7.463-.002-2.167.182-2.505-.698-2.494-2.616.076-12.452.083-24.904.021-37.356-.04-8.427-5.601-14.647-13.829-15.478-4.496-.454-8.393 1.175-11.82 4.138-2.436-14.957-19.634-20.437-30.238-9.295-5.488-14.39-21.94-16.885-31.506-7.051-.901-.497-.49-1.365-.495-2.04-.038-5.754.135-11.514-.091-17.258-.105-2.65.725-3.623 3.262-3.279 5.488-1.097 11.04-1.286 16.608-1.101 12.781.423 25.165-9.901 25.496-24.675.292-13.092-8.74-23.522-21.525-25.554-2.889-.459-5.791-.697-8.706-.529-4.993.289-9.865-.938-14.82-1.079" transform="translate(80 60)"/>
            <path fill="#EF7B97" d="M311.54 353.74c20.87 0 41.739.035 62.607-.051 2.35-.01 3.034.614 3.02 3.003-.1 17.52-.044 35.04-.08 52.56-.001.928.578 2.366-.709 2.678-1.371.331-2.897.151-4.337.012-.652-.063-.347-.847-.393-1.314-.133-1.33-.88-2.084-2.175-2.044-1.162.036-2.08.817-1.954 1.965.181 1.664-.735 1.547-1.817 1.547-39.248-.009-78.496-.018-117.743.028-1.758.001-2.131-.626-2.127-2.236.045-17.95.076-35.899-.029-53.848-.014-2.442 1.229-2.315 2.873-2.313 20.955.018 41.91.012 62.864.012" transform="translate(80 60)"/>
            <path fill="#F5DF49" d="M220.506 628.924c-20.523 0-41.047-.038-61.569.054-2.26.01-2.857-.537-2.845-2.826.104-17.518.09-35.036.013-52.553-.008-2.032.347-2.786 2.613-2.778 26.534.086 53.068.078 79.603.01 2.055-.006 2.608.598 2.582 2.601-.103 7.9-.043 15.8-.042 23.7 0 4.823.15 4.976 4.85 4.976 12.194 0 24.388.048 36.581-.046 2.057-.015 2.607.602 2.576 2.609-.112 7.211-.132 14.427.009 21.638.044 2.242-.747 2.664-2.801 2.657-20.523-.07-41.046-.042-61.57-.042" transform="translate(80 60)"/>
            <path fill="#94D6D3" d="M505.45 390.662c.87.518 1.835.359 2.766.358 25.394-.026 50.787-.063 76.181-.09.338 0 .678.08 1.015.122-7.032.823-13.165 3.447-18.025 8.778-13.248 14.537-6.554 37.972 12.39 43.304.9.253 1.782.573 2.672.86-1.367.044-2.735.124-4.103.125-33.98.006-67.958.028-101.936-.009-13.052-.014-23.495-7.877-26.531-19.804-4.324-16.979 8.23-32.967 26.194-33.256 7.549-.122 15.1-.031 22.65-.036-6.346 6.395-12.692 12.789-19.036 19.185-.544.548-1.12 1.072-1.608 1.667-.823 1.005-.834 2.078.095 3.004.854.85 1.874.805 2.803.103.612-.463 1.14-1.04 1.687-1.585 7.598-7.573 15.19-15.15 22.786-22.726M446.675 601.347c-16.65 14.155-35.814 22.857-57.426 25.892-19.192 2.696-38.338 2.69-57.145-2.824-10.808-3.17-20.264-8.819-28.614-16.328-2.422-2.178-4.704-4.51-7.049-6.77.171-.025.34-.07.51-.07 49.823.019 99.647.041 149.47.065.085 0 .17.023.254.035M241.367 566.414c-.03-10.632-.114-21.264-.053-31.894.012-2.277-.597-4.037-2.047-5.827-10.651-13.14-21.722-25.872-34.735-36.777 4.775-9.111 9.525-18.235 14.33-27.331 6.929-13.123 13.893-26.228 20.863-39.33.426-.798.669-1.746 1.865-2.567v2.932c0 24.555-.014 49.11.003 73.664.015 21.463.069 42.925.081 64.388 0 .912.312 1.888-.307 2.742" transform="translate(80 60)"/>
            <path fill="#EF7B97" d="M603.927 395.532c5.835 0 11.672-.11 17.503.024 11.3.258 20.293 8.64 21.579 19.952 1.192 10.48-5.814 20.59-16.319 23.546-4.423 1.246-4.407 1.246-4.428-3.208-.03-6.348.212-12.715-.202-19.04-.713-10.862-11.814-17.832-22.066-14.149-6.545 2.352-10.908 8.328-10.997 15.29-.082 6.608-.077 13.216.007 19.822.023 1.71-.516 2.156-2.193 2.136-11.89-.14-21.838-9.943-22.008-21.793-.174-12.167 9.29-22.227 21.364-22.542 5.917-.153 11.84-.026 17.76-.026v-.012z" transform="translate(80 60)"/>
            <path fill="#94D6D3" d="M622.504 391.052c7.79.12 15.596-.492 23.366.396 13.11 1.498 23.495 13.781 22.93 27.035-.594 13.895-11.815 25.284-25.355 25.574-5.994.128-11.994-.036-17.992-.067 6.665-1.688 12.413-4.788 16.642-10.421 12.191-16.242 2.297-39.662-17.836-42.154-.592-.073-1.17-.24-1.755-.363" transform="translate(80 60)"/>
            <path fill="#EF7B97" d="M264.992 570.866c5.84 0 11.68.06 17.518-.036 1.784-.03 2.384.497 2.363 2.32-.087 7.384-.076 14.77-.006 22.155.015 1.704-.379 2.432-2.27 2.42-11.763-.075-23.529-.062-35.293-.011-1.56.006-2.079-.475-2.064-2.056.066-7.556.077-15.114-.006-22.67-.02-1.742.607-2.174 2.24-2.152 5.839.078 11.679.03 17.518.03" transform="translate(80 60)"/>
            <path fill="#4B4D58" d="M497.934 549.707c-.257.237-.466.493-.731.655-.22.134-.55.059-.413-.264.114-.268.445-.457.705-.642.046-.032.227.126.44.251" transform="translate(80 60)"/>
            <path fill="#595B63" d="M474.65 572.877c.11-.717-.254-1.536.452-2.125.137.77.617 1.611-.452 2.125" transform="translate(80 60)"/>
            <path fill="#393B49" d="M106.822 591.42c-1.83.43-2.299-.536-2.059-2.11.33-2.159-.345-3.28-2.724-2.838-1.85.343-2.254-.54-2.267-2.282-.012-1.748.6-2.317 2.203-2.047 2.157.361 3.223-.32 2.796-2.687-.295-1.63.181-2.48 2.143-2.433 1.74.043 2.618.445 2.282 2.288-.437 2.393.613 3.228 2.888 2.827 1.743-.307 2.14.513 2.122 2.136-.02 1.576-.345 2.501-2.114 2.199-2.352-.403-3.303.546-2.895 2.898.341 1.958-.691 2.398-2.375 2.048M539.661 591.979c1.706-.418 2.17.457 1.912 1.949-.418 2.427.441 3.541 2.99 3.058 1.85-.351 2.065.688 2.082 2.222.016 1.51-.325 2.337-1.985 2.047-2.362-.41-3.585.324-3.09 2.94.31 1.634-.337 2.21-2.072 2.192-1.722-.017-2.641-.39-2.312-2.26.423-2.41-.639-3.28-2.94-2.866-1.858.333-1.997-.688-2.055-2.2-.065-1.739.552-2.358 2.186-2.075 2.263.392 3.214-.497 2.805-2.782-.366-2.046.642-2.607 2.479-2.225" transform="translate(80 60)"/>
            <path fill="#F5DF49" d="M156.417 359.182c-2.92 0-5.851-.165-8.755.05-2.639.195-4.6-.814-6.48-2.473-10.384-9.158-11.019-24.877-1.357-34.642 9.564-9.67 25.445-9.304 34.477.794 9.277 10.372 7.852 26.104-3.111 34.71-1.342 1.053-2.722 1.635-4.469 1.588-3.433-.092-6.869-.027-10.305-.027" transform="translate(80 60)"/>
            <path fill="#7DD2BF" d="M156.608 378.46c-2.315 0-4.635-.079-6.946.022-2.388.105-1.69-1.593-1.759-2.819-.073-1.271-.314-2.584 1.786-2.537 4.716.105 9.436.077 14.153.015 2.203-.03 1.63 1.52 1.637 2.68.007 1.175.528 2.731-1.665 2.657-2.4-.082-4.803-.019-7.206-.018" transform="translate(80 60)"/>
            <path fill="#7FD5C1" d="M156.636 368.815c-2.398 0-4.797-.065-7.191.021-2.08.074-1.575-1.41-1.51-2.466.065-1.066-.826-2.766 1.486-2.744 4.88.044 9.76.027 14.64.008 2.103-.008 1.395 1.575 1.387 2.581-.006 1.001.742 2.61-1.362 2.6-2.484-.01-4.967-.002-7.45 0" transform="translate(80 60)"/>
            <path fill="#7ED4C0" d="M156.82 382.745c2.134 0 4.268.01 6.4-.004 1.138-.008 1.406.438.749 1.371-1.737 2.472-4.112 3.774-7.147 3.813-3.143.042-5.593-1.272-7.394-3.828-.658-.936-.411-1.367.736-1.358 2.22.019 4.437.006 6.656.006" transform="translate(80 60)"/>
            <path fill="#94D6D3" d="M306.479 510.388c16.905.031 30.195 13.404 30.138 30.326-.056 16.84-13.517 30.183-30.398 30.135-16.707-.05-30.1-13.65-30.053-30.52.047-16.625 13.56-29.97 30.313-29.94M336.618 468.918c.033 16.834-13.38 30.334-30.132 30.33-16.84-.004-30.307-13.408-30.32-30.175-.01-16.83 13.383-30.275 30.175-30.287 16.93-.012 30.245 13.238 30.277 30.132" transform="translate(80 60)"/>
            <path fill="#3E404D" d="M444.79 595.322c-1.308-.185-2.163-.755-2.186-2.11-.022-1.326.746-2.147 1.984-2.201 1.37-.06 2.236.754 2.236 2.202 0 1.361-.908 1.898-2.034 2.109M434.043 590.953c1.245.255 2.037.914 2.023 2.237-.014 1.341-.835 2.091-2.082 2.081-1.374-.012-2.225-.834-2.133-2.292.083-1.328.986-1.875 2.192-2.026M378.197 593.118c.06-1.292.816-2.09 2.061-2.103 1.373-.016 2.218.806 2.163 2.262-.051 1.346-.925 2.026-2.167 1.993-1.251-.034-2.017-.786-2.057-2.152M402.117 563.095c-1.572-.016-2.37-.737-2.456-1.987-.087-1.238.537-2.143 1.896-2.24 1.444-.102 2.304.685 2.36 2.064.052 1.275-.814 1.957-1.8 2.163" transform="translate(80 60)"/>
            <path fill="#424450" d="M371.681 582.598c-.108 1.22-.894 1.98-2.145 1.953-1.238-.027-2.093-.787-2.096-2.114-.004-1.464.935-2.244 2.284-2.174 1.23.064 1.986.893 1.957 2.335M391.171 584.62c-1.277-.202-2.14-.765-2.202-2.112-.063-1.347.715-2.171 1.94-2.245 1.356-.08 2.273.71 2.294 2.166.02 1.357-.912 1.902-2.032 2.191M403.975 582.187c-.08 1.377-.773 2.227-2.011 2.357-1.276.135-2.158-.623-2.301-1.89-.16-1.423.68-2.329 2.052-2.401 1.263-.068 1.981.805 2.26 1.934M479.113 560.906c-.272 1.361-.896 2.218-2.239 2.173-1.454-.048-2.225-.973-2.108-2.336.106-1.234.956-1.963 2.293-1.895 1.384.071 1.825 1.027 2.054 2.058" transform="translate(80 60)"/>
            <path fill="#3E404D" d="M466.31 563.093c-1.406-.02-2.193-.766-2.272-2.008-.078-1.237.574-2.132 1.926-2.218 1.448-.092 2.311.707 2.337 2.084.023 1.242-.769 2.013-1.99 2.142" transform="translate(80 60)"/>
            <path fill="#40434F" d="M414.713 582.31c-.111 1.231-.761 2.136-2.014 2.234-1.408.11-2.307-.79-2.339-2.146-.03-1.25.838-2.106 2.097-2.146 1.27-.04 2 .793 2.256 2.058" transform="translate(80 60)"/>
            <path fill="#40424F" d="M425.414 582.494c-.196 1.308-.955 2.107-2.22 2.06-1.243-.048-2.115-.868-2.088-2.149.029-1.391.943-2.237 2.334-2.138 1.261.088 1.927.968 1.974 2.227" transform="translate(80 60)"/>
            <path fill="#3D3F4C" d="M425.41 560.983c-.19 1.273-.83 2.11-2.153 2.086-1.439-.024-2.23-.932-2.13-2.296.09-1.23.926-1.977 2.255-1.914 1.347.064 1.911.904 2.028 2.124" transform="translate(80 60)"/>
            <path fill="#424450" d="M412.66 563.096c-1.388-.004-2.19-.758-2.288-1.988-.1-1.242.588-2.13 1.924-2.243 1.46-.123 2.325.687 2.363 2.064.033 1.239-.737 2.039-2 2.167" transform="translate(80 60)"/>
            <path fill="#3F414D" d="M369.655 462.145c1.234.269 2.047.917 2.022 2.244-.025 1.329-.836 2.104-2.088 2.083-1.36-.022-2.236-.836-2.135-2.297.09-1.318.999-1.873 2.201-2.03" transform="translate(80 60)"/>
            <path fill="#424450" d="M371.675 453.89c-.097 1.108-.874 1.902-2.123 1.86-1.36-.047-2.217-.901-2.1-2.357.107-1.327 1.035-2.014 2.259-1.933 1.23.08 2.004.87 1.964 2.43M371.69 518.062c-.086 1.322-.869 2.106-2.114 2.084-1.367-.023-2.221-.877-2.125-2.327.09-1.328 1.005-2.023 2.235-1.957 1.238.065 2.007.852 2.004 2.2M414.713 593.092c-.145 1.257-.8 2.124-2.083 2.191-1.281.069-2.171-.705-2.255-1.96-.094-1.39.763-2.306 2.151-2.332 1.28-.024 1.96.869 2.187 2.1" transform="translate(80 60)"/>
            <path fill="#3D3F4C" d="M391.168 595.323c-1.355-.173-2.176-.782-2.198-2.121-.022-1.324.753-2.142 1.99-2.19 1.37-.052 2.238.769 2.233 2.209-.006 1.355-.942 1.877-2.025 2.102M371.679 593.262c-.104 1.334-.905 2.04-2.159 2.001-1.243-.038-2.092-.786-2.07-2.107.024-1.43.929-2.242 2.292-2.144 1.226.087 1.954.928 1.937 2.25" transform="translate(80 60)"/>
            <path fill="#424450" d="M455.52 580.206c1.273.275 2.138.92 2.077 2.248-.066 1.436-1.003 2.214-2.368 2.084-1.238-.117-1.963-.984-1.866-2.311.096-1.351.994-1.87 2.158-2.021M436.069 582.164c.047 1.488-.728 2.31-1.945 2.384-1.35.081-2.28-.704-2.288-2.169-.008-1.339.85-2.086 2.084-2.119 1.25-.032 2.049.713 2.149 1.904" transform="translate(80 60)"/>
            <path fill="#434551" d="M401.806 595.32c-1.28-.117-2.126-.792-2.17-2.081-.042-1.268.714-2.163 1.986-2.236 1.406-.08 2.297.795 2.308 2.175.011 1.274-.866 1.97-2.124 2.142" transform="translate(80 60)"/>
            <path fill="#3E404D" d="M371.681 528.849c-.1 1.329-.897 2.054-2.149 2.023-1.239-.03-2.094-.78-2.083-2.102.012-1.435.92-2.244 2.281-2.162 1.233.074 1.96.917 1.951 2.241" transform="translate(80 60)"/>
            <path fill="#3D3F4C" d="M380.418 573.884c-1.233-.128-2.092-.695-2.192-2.011-.1-1.313.584-2.141 1.87-2.246 1.384-.114 2.289.574 2.324 2.044.031 1.318-.774 1.968-2.002 2.213" transform="translate(80 60)"/>
            <path fill="#414350" d="M444.726 584.628c-1.337-.284-2.15-.919-2.128-2.263.02-1.353.858-2.105 2.09-2.102 1.373.004 2.207.844 2.134 2.308-.069 1.373-1.037 1.829-2.096 2.057" transform="translate(80 60)"/>
            <path fill="#41434F" d="M401.654 573.88c-1.28-.208-2.043-.984-2.014-2.236.03-1.263.816-2.082 2.13-2.046 1.413.038 2.252.901 2.137 2.3-.102 1.24-.967 1.927-2.253 1.983" transform="translate(80 60)"/>
            <path fill="#414350" d="M412.574 569.571c1.298.123 2.095.873 2.088 2.132-.007 1.24-.783 2.119-2.077 2.142-1.43.026-2.261-.9-2.214-2.257.043-1.239.892-1.972 2.203-2.017M382.45 582.469c-.075 1.31-.867 2.093-2.106 2.08-1.361-.015-2.219-.836-2.128-2.315.083-1.356.981-2.026 2.21-1.973 1.245.053 2.006.846 2.024 2.208" transform="translate(80 60)"/>
            <path fill="#3D3F4C" d="M444.788 573.885c-1.219-.149-2.083-.702-2.167-2.03-.083-1.315.603-2.146 1.885-2.235 1.374-.096 2.284.597 2.31 2.07.023 1.326-.802 1.95-2.028 2.195" transform="translate(80 60)"/>
            <path fill="#40434F" d="M423.192 590.947c1.278.145 2.119.816 2.19 2.093.073 1.286-.672 2.155-1.955 2.229-1.397.08-2.305-.74-2.32-2.142-.013-1.278.869-1.953 2.085-2.18" transform="translate(80 60)"/>
            <path fill="#40424E" d="M468.376 571.619c-.222 1.326-.859 2.205-2.154 2.225-1.438.023-2.248-.917-2.198-2.265.047-1.228.874-2.025 2.202-1.983 1.328.043 1.904.921 2.15 2.023" transform="translate(80 60)"/>
            <path fill="#3D3F4C" d="M457.624 571.66c-.112 1.278-.787 2.118-2.05 2.168-1.407.055-2.217-.783-2.2-2.202.017-1.318.811-2.027 2.11-2.008 1.29.018 1.988.773 2.14 2.042M371.685 475.036c-.086 1.406-.796 2.146-2.092 2.147-1.276 0-2.112-.71-2.136-2.012-.027-1.414.824-2.248 2.212-2.208 1.27.036 1.938.884 2.016 2.073" transform="translate(80 60)"/>
            <path fill="#3C3E4B" d="M371.692 485.695c-.114 1.411-.764 2.185-2.083 2.197-1.297.011-2.106-.717-2.146-1.992-.044-1.402.765-2.217 2.191-2.2 1.337.016 1.909.877 2.038 1.995" transform="translate(80 60)"/>
            <path fill="#3C3F4C" d="M436.076 571.71c-.107 1.342-.84 2.13-2.098 2.118-1.386-.012-2.204-.87-2.122-2.288.075-1.31.942-1.972 2.21-1.927 1.303.047 1.96.838 2.01 2.096" transform="translate(80 60)"/>
            <path fill="#3E404D" d="M423.152 573.883c-1.223-.216-2.068-.923-2.035-2.188.038-1.391.926-2.173 2.346-2.077 1.325.091 1.989.963 1.903 2.23-.087 1.273-.916 1.938-2.214 2.035" transform="translate(80 60)"/>
            <path fill="#3C3E4C" d="M393.222 571.644c-.086 1.294-.763 2.134-2.027 2.184-1.396.056-2.218-.761-2.208-2.193.01-1.333.808-2.027 2.097-2.02 1.29.007 1.997.755 2.138 2.03" transform="translate(80 60)"/>
            <path fill="#3D3F4C" d="M371.68 571.631c-.036 1.3-.723 2.139-1.979 2.199-1.383.066-2.25-.755-2.244-2.172.004-1.306.823-2.026 2.102-2.044 1.292-.018 2.022.704 2.121 2.017" transform="translate(80 60)"/>
            <path fill="#3C3E4C" d="M367.418 507.29c.128-1.279.812-2.043 2.106-2.072 1.294-.029 2.106.662 2.136 1.982.033 1.415-.771 2.259-2.176 2.226-1.27-.03-1.947-.862-2.066-2.137" transform="translate(80 60)"/>
            <path fill="#3D3F4C" d="M371.681 539.506c-.083 1.328-.78 2.077-2.083 2.077-1.273 0-2.116-.702-2.141-2.005-.028-1.41.814-2.25 2.207-2.212 1.273.034 1.944.875 2.017 2.14" transform="translate(80 60)"/>
            <path fill="#3C3E4B" d="M369.72 552.32c-1.325-.028-2.173-.669-2.256-1.944-.09-1.395.686-2.252 2.116-2.27 1.31-.016 2.043.752 2.076 2.045.035 1.298-.68 2.02-1.936 2.169" transform="translate(80 60)"/>
            <path fill="#3B3D4B" d="M371.682 496.606c-.138 1.279-.802 2.076-2.111 2.051-1.424-.026-2.201-.894-2.107-2.287.088-1.276.94-1.967 2.228-1.91 1.318.058 1.932.87 1.99 2.146" transform="translate(80 60)"/>
            <path fill="#3C3E4B" d="M369.49 440.792c1.308.05 2.116.672 2.173 1.99.056 1.288-.653 2.147-1.914 2.236-1.386.099-2.26-.705-2.29-2.116-.028-1.304.782-1.969 2.03-2.11" transform="translate(80 60)"/>
            <path fill="#3B3D4B" d="M371.684 432.137c-.09 1.253-.713 2.085-2.022 2.113-1.414.03-2.239-.785-2.2-2.191.037-1.279.838-2.003 2.137-1.995 1.317.008 1.977.77 2.085 2.073M371.682 561.014c-.13 1.266-.8 2.061-2.101 2.046-1.424-.017-2.202-.89-2.117-2.278.079-1.274.926-1.966 2.218-1.913 1.32.054 1.941.85 2 2.145" transform="translate(80 60)"/>
            <path fill="#3B3D4A" d="M393.224 561.04c-.197 1.234-.855 2.045-2.158 2.021-1.44-.026-2.158-.91-2.07-2.306.082-1.31.918-1.961 2.215-1.882 1.308.08 1.918.894 2.013 2.166" transform="translate(80 60)"/>
            <path fill="#3B3D4B" d="M434.043 558.846c1.281.126 2.023.808 2.004 2.123-.019 1.296-.75 2.08-2.04 2.089-1.415.01-2.21-.835-2.15-2.24.055-1.3.899-1.92 2.186-1.972M445.031 563.113c-1.481-.09-2.305-.691-2.403-1.995-.098-1.298.57-2.134 1.862-2.238 1.39-.111 2.266.59 2.323 2.042.052 1.342-.829 1.905-1.782 2.191M457.633 560.721c-.109 1.395-.713 2.257-2.006 2.335-1.424.087-2.235-.713-2.246-2.13-.01-1.301.73-2.035 2.05-2.06 1.328-.024 1.94.792 2.202 1.855M369.712 423.507c-1.315-.024-2.167-.66-2.247-1.936-.087-1.39.688-2.253 2.114-2.271 1.306-.016 2.04.754 2.076 2.045.038 1.3-.68 2.016-1.943 2.162" transform="translate(80 60)"/>
            <path fill="#3A3C4A" d="M382.445 560.88c-.077 1.309-.724 2.14-2.051 2.178-1.312.036-2.113-.7-2.161-2.029-.046-1.332.683-2.108 2.017-2.153 1.332-.044 2.05.691 2.195 2.004" transform="translate(80 60)"/>
            <path fill="#383A48" d="M452.967 320.017c.038 4.869-3.876 8.823-8.769 8.857-4.743.034-8.676-3.817-8.763-8.58-.089-4.924 3.704-8.878 8.614-8.976 4.853-.097 8.88 3.831 8.918 8.699M474.89 320.257c-.114 4.875-4.181 8.77-9.005 8.621-4.873-.15-8.725-4.245-8.54-9.079.184-4.794 4.12-8.564 8.869-8.495 4.87.07 8.789 4.114 8.676 8.953M431 320.123c-.007 4.904-3.946 8.807-8.834 8.754-4.74-.05-8.638-3.938-8.71-8.684-.076-4.81 3.918-8.86 8.764-8.89 4.864-.032 8.787 3.909 8.78 8.82M286.627 382.806c.035 4.971-3.765 8.81-8.717 8.804-4.924-.007-8.85-3.92-8.814-8.787.035-4.711 3.93-8.638 8.67-8.74 4.823-.103 8.827 3.838 8.861 8.723M299.816 391.608c-4.955-.004-8.734-3.83-8.705-8.813.028-4.769 3.881-8.666 8.62-8.72 4.8-.056 8.876 3.954 8.91 8.764.033 4.861-3.904 8.774-8.825 8.77M330.488 382.865c.02 4.942-3.823 8.77-8.78 8.742-4.782-.025-8.681-3.85-8.757-8.592-.079-4.786 3.907-8.868 8.732-8.944 4.843-.077 8.783 3.859 8.805 8.794" transform="translate(80 60)"/>
            <path fill="#413D4C" d="M371.662 400.06c-.11 1.322-.907 2.033-2.148 2.008-1.253-.025-2.068-.819-2.055-2.105.014-1.415.918-2.222 2.28-2.14 1.248.074 1.92.94 1.923 2.237" transform="translate(80 60)"/>
            <path fill="#3E3C4B" d="M371.653 389.289c-.095 1.266-.837 2.07-2.118 2.035-1.26-.034-2.084-.842-2.074-2.157.01-1.332.87-2.082 2.138-2.073 1.286.01 2.022.798 2.054 2.195" transform="translate(80 60)"/>
            <path fill="#3B3B4A" d="M369.356 365.64c1.51.086 2.27.764 2.274 2.088.004 1.31-.716 2.095-2.042 2.098-1.308.003-2.08-.763-2.112-2.058-.035-1.338.835-1.94 1.88-2.127" transform="translate(80 60)"/>
            <path fill="#3B3B49" d="M371.655 378.548c-.115 1.253-.799 2.06-2.099 2.049-1.28-.012-2.085-.787-2.079-2.09.007-1.301.792-2.05 2.097-2.062 1.33-.013 2.003.752 2.08 2.103M369.638 359.085c-1.312-.07-2.125-.742-2.156-2.039-.032-1.285.718-2.094 2.025-2.13 1.313-.037 2.068.726 2.12 2.026.055 1.331-.7 2.015-1.989 2.143" transform="translate(80 60)"/>
            <path fill="#F2F5E5" d="M303.964 543.458c.494-1.468-.95-1.158-1.506-1.49-3.5-2.088-5.152-5.827-4.113-9.641.985-3.616 4.552-6.333 8.189-6.235 3.813.102 7.198 2.924 8.085 6.742.807 3.468-1.04 7.317-4.285 9.114-.677.375-1.812.234-1.895 1.426-1.466 1.362-2.957 1.448-4.475.084" transform="translate(80 60)"/>
            <path fill="#F2F5E5" d="M303.964 543.458c1.488-.178 2.974-.446 4.473-.084 4.7.842 7.989 4.924 7.884 9.69-.028 1.264-.458 1.905-1.802 1.898-5.321-.027-10.643-.028-15.963-.005-1.338.006-1.743-.634-1.816-1.893-.265-4.566 2.656-8.505 7.224-9.606M304.447 470.806c-.33-.697-1.052-.818-1.645-1.137-3.749-2.013-5.549-5.887-4.496-9.658 1.16-4.15 4.479-6.477 8.867-6.216 3.792.226 6.951 3.234 7.57 7.207.583 3.76-1.764 7.504-5.692 9.052-.391.154-.825.196-1.24.29-.955 1.365-2.075 1.526-3.364.462" transform="translate(80 60)"/>
            <path fill="#F2F5E5" d="M304.447 470.806c1.056-.632 2.268-.12 3.365-.462 4.738 1.426 7.87 4.267 8.468 9.436.23 1.984-.173 3.006-2.53 2.928-4.875-.162-9.76-.107-14.64-.02-1.768.032-2.409-.543-2.388-2.352.055-4.759 2.904-8.374 7.725-9.53" transform="translate(80 60)"/>
            <path fill="#F4DE49" d="M444.105 315.735c2.415-.046 4.453 1.912 4.496 4.32.044 2.422-1.9 4.427-4.33 4.465-2.427.04-4.454-1.894-4.51-4.3-.054-2.376 1.943-4.438 4.344-4.485M470.507 320.215c-.039 2.44-2.013 4.343-4.466 4.306-2.441-.037-4.36-2.016-4.318-4.456.042-2.416 2.06-4.371 4.468-4.33 2.41.04 4.356 2.06 4.316 4.48M422.279 315.733c2.376.005 4.408 2.046 4.401 4.422-.006 2.401-2.008 4.374-4.431 4.37-2.466-.008-4.365-1.923-4.36-4.399.004-2.442 1.958-4.398 4.39-4.393" transform="translate(80 60)"/>
            <path fill="#EF7B97" d="M277.892 387.314c-2.415-.017-4.341-1.995-4.33-4.447.013-2.493 1.892-4.355 4.382-4.342 2.392.013 4.423 2.042 4.406 4.4-.017 2.338-2.117 4.405-4.458 4.389M299.732 378.525c2.498-.049 4.405 1.787 4.44 4.272.035 2.49-1.812 4.455-4.246 4.514-2.346.058-4.445-1.944-4.529-4.319-.082-2.327 1.949-4.42 4.335-4.467M321.674 378.532c2.45-.051 4.456 1.847 4.506 4.266.05 2.35-1.973 4.465-4.318 4.517-2.39.053-4.415-1.911-4.462-4.328-.047-2.485 1.793-4.403 4.274-4.455" transform="translate(80 60)"/>
        </g>
    </g>
</svg>
