<svg xmlns="http://www.w3.org/2000/svg" width="24" height="24" viewBox="0 0 24 24">
    <path fill="#666" fill-rule="evenodd" d="M9.658 2.961v.325H5c-.552 0-1 .448-1 1v15.405c0 .552.448 1 1 1l4.658.004v.344c0 .552.448 1 1 1 .05 0 .1-.004.149-.011l8.332-1.25c.489-.074.851-.494.851-.989L20 4.221c0-.495-.361-.916-.85-.99l-8.342-1.258c-.546-.083-1.056.293-1.138.84-.008.048-.012.098-.012.148zm1.714 8.356c.347 0 .628.305.628.682 0 .378-.281.683-.628.683s-.628-.305-.628-.683c0-.377.281-.682.628-.682zM5.68 18.289v-12.6c0-.552.448-1 1-1h2.978v14.602L6.68 19.29c-.552 0-1-.448-1-1z"/>
</svg>
