<svg xmlns="http://www.w3.org/2000/svg" width="184" height="32" viewBox="0 0 184 32">
    <g fill="#F03" fill-rule="evenodd">
        <path d="M170.434 16.316v.9h.365c.185 0 .367-.179.367-.179.183 0 .183-.179.183-.179 0-.181 0-.36-.183-.36 0 0-.182-.182-.367-.182h-.365zm-.553-.178h.918c.367 0 .732 0 .917.178 0 0 .183.182.183.36 0 .182 0 .361-.183.54 0 0-.185.179-.367.179l.55 1.078h-.55l-.55-1.078h-.365v1.078h-.553v-2.335zm.918-.718c.185 0 .55.178.732.178.185.18.368.18.55.358.185.182.368.36.368.72.182.182.182.361.182.719 0 .181 0 .36-.182.539 0 .36-.183.54-.368.718-.182 0-.365.181-.55.36H170.066c-.185-.179-.367-.36-.55-.539-.182-.179-.367-.358-.367-.54-.183-.178-.183-.357-.183-.717 0-.179 0-.358.183-.54 0-.36.185-.538.367-.72.183-.179.365-.179.55-.358.183 0 .55-.178.733-.178zm0-.182c.367 0 .55 0 .917.182.183 0 .365.178.55.357.365.18.365.54.55.72.183.18.183.54.183.719 0 .36 0 .718-.183.9-.185.178-.185.536-.55.717-.185.18-.367.358-.55.358-.367.182-.55.182-.917.182-.183 0-.55 0-.733-.182-.367 0-.55-.179-.732-.358-.185-.181-.368-.539-.55-.718 0-.36-.185-.539-.185-.9 0-.178.185-.538.185-.717.182-.36.365-.542.55-.72.182-.18.365-.358.732-.358.183-.182.368-.182.733-.182zM96.26 8.745h-2.08v7.599h2.08c1.077 0 2.01-.351 2.657-1.055.717-.704 1.148-1.689 1.148-2.744 0-1.056-.431-1.97-1.148-2.674-.647-.703-1.58-1.126-2.657-1.126zm9.116-2.674h12.849v3.87h-4.307V8.745h-2.01v2.744h2.01v-.703h3.087v3.518h-3.087v-.634h-2.01v2.674h2.01v-1.126h4.307v3.73h-13.136v-2.604h2.44V8.745h-2.44V6.071h.287zm22.395 2.674h-1.22v3.588h1.22c.502 0 .933-.21 1.292-.562.359-.282.502-.774.502-1.267 0-.493-.143-.915-.502-1.266-.359-.281-.79-.493-1.292-.493zm-7.823-2.674h8.971c.36 0 .718.071 1.149.071.359.07.718.141 1.076.281 1.795.492 3.302 1.76 3.374 4.01v.071c0 1.478-.718 2.533-1.795 3.307-1.005.704-2.368 1.056-3.66 1.056h-2.513v1.477h2.513v2.603h-9.403v-2.603h2.513V8.745h-2.513V6.071h.288zm24.189 2.674h-.073c-1.005 0-1.938.423-2.656 1.126-.646.703-1.076 1.618-1.076 2.674 0 1.055.43 2.04 1.076 2.744.718.704 1.65 1.055 2.656 1.055h.073c1.004 0 1.937-.351 2.655-1.055.646-.704 1.076-1.689 1.076-2.744 0-1.056-.43-1.97-1.076-2.674-.718-.703-1.65-1.126-2.655-1.126zm-.288-2.884h.79c2.153 0 4.162.492 5.598 1.477 1.508.985 2.512 2.462 2.656 4.362v.422c0 .564-.072 1.127-.215 1.62-.144.562-.36 1.055-.646 1.476-1.364 2.322-4.235 3.8-7.608 4.011-.216 0-.36.07-.504.07-2.296.07-4.306-.422-5.812-1.407-1.58-1.056-2.585-2.463-2.729-4.433v-.281c0-.633.072-1.196.144-1.689.143-.562.358-1.056.645-1.478 1.365-2.391 4.308-3.869 7.68-4.15zm9.762.21h15.36v3.87h-3.875V8.745h-1.723v7.599h2.296v2.603h-9.116v-2.603h2.513V8.745h-1.938v1.196h-3.804v-3.87h.287zm-66.036 0h10.84c1.65 0 3.301.563 4.52 1.619 1.221 1.125 2.083 2.673 2.083 4.785 0 2.18-1.077 3.729-2.584 4.853-1.508 1.056-3.445 1.62-5.097 1.62H87.29v-2.604h2.584V8.745h-2.584V6.071h.286zM77.973 10.312c0-.453-.265-.971-.594-1.359-.396-.453-.99-.712-1.716-.712h-.33c-.727 0-1.32.259-1.782.583-.397.388-.66.905-.726 1.488h5.148zM9.99 1.447c.264-.064.462-.064.726-.064 2.508-.065 4.753.582 6.534 1.812 1.717 1.293 2.904 3.106 3.037 5.5.066.129.066.258.066.452.066 3.688-2.047 6.535-5.28 8.023-.66.258-1.32.518-2.046.712-.66.129-1.452.258-2.179.324h-.065c-.133 0-.33.064-.463.064-2.574.065-4.95-.518-6.666-1.812-1.782-1.164-2.97-3.106-3.169-5.564v-.323c-.197-3.753 1.98-6.665 5.28-8.088.595-.324 1.32-.518 1.981-.712.726-.194 1.452-.258 2.244-.324zm.528 3.106c-.33 0-.66.065-.924.13-.396.065-.726.129-1.056.259-.33.129-.66.323-.99.517-1.386.97-2.376 2.524-2.376 4.335 0 .323 0 .583.066.906.198 1.1.66 2.07 1.452 2.782.726.777 1.65 1.294 2.706 1.489.33 0 .66.064.99.064.264 0 .595 0 .858-.064.396-.066.726-.195 1.056-.324.396-.13.727-.323.99-.517 1.452-.907 2.377-2.524 2.377-4.336 0-.26 0-.582-.067-.84-.131-1.101-.66-2.072-1.386-2.848-.791-.712-1.716-1.23-2.772-1.423-.33-.065-.594-.13-.924-.13zm10.957 1.553h2.64V4.424c0-1.035.462-2.006 1.254-2.783.792-.776 1.98-1.293 3.366-1.293h4.159v2.458H30.78c-.66 0-1.255.065-1.651.324-.396.194-.66.583-.66 1.164v1.812h3.498v2.46H28.47v6.986h3.037v2.394H21.21v-2.394h2.904V8.565H21.21v-2.46h.264zm12.079 0h2.573V4.424c0-1.035.463-2.006 1.254-2.783C38.24.865 39.362.348 40.813.348h4.158v2.458H42.86c-.66 0-1.254.065-1.716.324-.33.194-.594.583-.594 1.164v1.812h3.432v2.46H40.55v6.986h3.036v2.394H33.288v-2.394h2.838V8.565h-2.838v-2.46h.265zM50.252.282c.725 0 1.452.26 1.98.583.528.388.858.97.858 1.553 0 .582-.33 1.165-.859 1.553-.527.323-1.254.582-1.979.582-.793 0-1.453-.259-1.98-.582-.529-.388-.858-.97-.858-1.553 0-.582.33-1.165.858-1.553.527-.323 1.187-.583 1.98-.583zm-4.687 5.824h6.997v9.446h2.442v2.394h-9.703v-2.394h2.838V8.565h-2.838v-2.46h.264zm21.385.26v3.687h-3.167V8.565h-.793c-.462 0-.924.064-1.32.194-.066 0-.132 0-.132.065-.33.064-.595.258-.858.388 0 .064-.066.129-.132.129l-.33.324c-.066.064-.132.194-.198.323-.396.518-.594 1.1-.594 1.747v.194c.066.13.066.26.066.388.066.13.066.26.132.39.198.645.594 1.228 1.188 1.681.726.517 1.716.711 2.773.711 1.056.065 2.177-.128 3.036-.258l.33-.065v2.652l-.199.066c-.792.194-1.452.322-2.178.452-.726.065-1.452.13-2.244.13h-.395c-.529 0-.992-.065-1.453-.13-.528-.13-.99-.258-1.452-.388-2.245-.776-3.895-2.459-3.895-5.63v-.064c0-.452.066-.97.198-1.423.133-.453.33-.906.595-1.294 1.254-2.005 3.696-3.235 6.27-3.3h1.452c1.056.065 2.112.13 3.037.259l.263.065v.194zm9.571 9.057h1.32c1.188-.065 2.376-.26 3.234-.647l.396-.194v2.846l-.198.066c-.198.064-.462.128-.66.194-.263.064-.528.128-.726.194-1.32.258-2.772.388-4.158.388-.132 0-.33 0-.462-.064-.528 0-1.057-.066-1.584-.13-.529-.13-1.056-.26-1.518-.388-2.442-.841-4.092-2.459-4.159-5.63v-.13c.067-.58.133-1.164.265-1.616.198-.518.395-.971.659-1.424 1.32-2.136 3.895-3.17 6.667-3.17h.066c.528 0 1.056.065 1.518.13.462.064.924.193 1.32.387 2.178.777 3.63 2.524 3.63 5.307v1.164h-9.373c0 .194.067.388.133.582.065.258.132.453.263.647.595 1.036 1.85 1.423 3.367 1.488z" transform="translate(5.402 6.348)"/>
    </g>
</svg>
