<svg xmlns="http://www.w3.org/2000/svg" width="24" height="24" viewBox="0 0 24 24">
    <path fill="#B8B8B8" fill-rule="evenodd" d="M18.974 8.15v12.137c0 .98-.73 1.769-1.67 1.769H7.552c-.94 0-1.67-.789-1.67-1.77V8.15h13.092zM15.47 9.632c-.227 0-.412.176-.412.393v9.288c0 .217.185.393.412.393.228 0 .413-.176.413-.393v-9.288c0-.217-.185-.393-.413-.393zm-3.041 0c-.228 0-.412.176-.412.393v9.288c0 .217.184.393.412.393.228 0 .412-.176.412-.393v-9.288c0-.217-.184-.393-.412-.393zm-3.041 0c-.228 0-.413.176-.413.393v9.288c0 .217.185.393.413.393.227 0 .412-.176.412-.393v-9.288c0-.217-.185-.393-.412-.393zm10.01-4.236c.57 0 1.031.44 1.031.983 0 .543-.462.983-1.031.983H5.459c-.57 0-1.031-.44-1.031-.983 0-.543.461-.983 1.03-.983zm-4.68-3.341c1.08 0 1.938.788 1.938 1.818v1.13h-.825v-1.13c0-.596-.488-1.032-1.113-1.032h-4.578c-.625 0-1.113.436-1.113 1.032v1.13H8.2v-1.13c0-1.03.858-1.818 1.938-1.818z"/>
</svg>
